<?xml version="1.0" encoding="utf-8"?>
<!-- Generator: Adobe Illustrator 22.1.0, SVG Export Plug-In . SVG Version: 6.00 Build 0)  -->
<svg version="1.1" id="Слой_1" xmlns="http://www.w3.org/2000/svg" xmlns:xlink="http://www.w3.org/1999/xlink" x="0px" y="0px"
	 viewBox="0 0 400 400" style="enable-background:new 0 0 400 400;" xml:space="preserve">
<style type="text/css">
	.st0{clip-path:url(#SVGID_2_);}
	.st1{fill:#77B70A;}
	.st2{enable-background:new    ;}
	.st3{fill:#FFFFFF;}
</style>
<g>
	<defs>
		<rect id="SVGID_1_" width="400" height="400"/>
	</defs>
	<clipPath id="SVGID_2_">
		<use xlink:href="#SVGID_1_"  style="overflow:visible;"/>
	</clipPath>
	<g id="a" class="st0">
		<g transform="translate(-319.997 -1700.358)">
			<path class="st1" d="M431.6,1800.4h176.9c6.4,0,11.6,5.2,11.6,11.6v176.9c0,6.4-5.2,11.6-11.6,11.6H431.6
				c-6.4,0-11.6-5.2-11.6-11.6v-176.9C420,1805.5,425.2,1800.4,431.6,1800.4z"/>
			<g class="st2">
				<path class="st3" d="M470.2,1876.7c2.6,0,4.9,0.4,7,1.1s3.9,1.8,5.4,3.1c1.5,1.3,2.6,2.9,3.4,4.6c0.8,1.8,1.2,3.7,1.2,5.7
					c0,1.8-0.2,3.4-0.6,4.7c-0.4,1.4-1,2.6-1.8,3.6c-0.8,1-1.7,1.9-2.8,2.6s-2.4,1.3-3.8,1.8c3.4,1.1,5.9,2.7,7.6,4.9
					s2.5,4.9,2.5,8.2c0,2.8-0.5,5.3-1.6,7.4c-1,2.2-2.4,4-4.2,5.4c-1.8,1.5-3.8,2.6-6.1,3.3c-2.3,0.8-4.8,1.1-7.4,1.1
					c-2.8,0-5.3-0.3-7.4-1c-2.1-0.7-3.9-1.6-5.5-2.9c-1.6-1.3-2.9-2.8-4-4.7c-1.1-1.8-2-4-2.8-6.4l4.3-1.8c0.7-0.3,1.5-0.5,2.2-0.5
					c0.7,0,1.3,0.1,1.8,0.4c0.5,0.3,0.9,0.7,1.2,1.2c0.5,0.9,1,1.8,1.5,2.7c0.6,0.9,1.2,1.7,2,2.4c0.8,0.7,1.7,1.2,2.7,1.7
					c1.1,0.4,2.3,0.6,3.8,0.6c1.6,0,3.1-0.3,4.3-0.8c1.2-0.5,2.2-1.2,3.1-2.1c0.8-0.9,1.4-1.8,1.8-2.9c0.4-1.1,0.6-2.1,0.6-3.2
					c0-1.4-0.1-2.6-0.4-3.7c-0.3-1.1-0.9-2-1.8-2.8c-0.9-0.8-2.2-1.4-3.9-1.8c-1.7-0.4-4-0.7-6.8-0.7v-6.9c2.4,0,4.3-0.2,5.9-0.6
					c1.6-0.4,2.8-1,3.7-1.7s1.6-1.6,1.9-2.7c0.4-1,0.5-2.2,0.5-3.4c0-2.7-0.7-4.7-2.2-6.1c-1.5-1.4-3.4-2-6-2
					c-2.3,0-4.2,0.6-5.7,1.8c-1.5,1.2-2.6,2.8-3.2,4.7c-0.3,1-0.7,1.7-1.3,2.1s-1.3,0.6-2.1,0.6c-0.4,0-0.9,0-1.3-0.1l-5.1-0.9
					c0.4-2.7,1.1-5.1,2.3-7.1c1.1-2,2.5-3.7,4.2-5.1c1.7-1.4,3.6-2.4,5.8-3.1C465.3,1877.1,467.7,1876.7,470.2,1876.7z"/>
				<path class="st3" d="M517.1,1898.5c2.1,0,4.2,0.4,6.2,1.1s3.8,1.8,5.3,3.2c1.5,1.4,2.8,3.2,3.7,5.3c0.9,2.1,1.4,4.6,1.4,7.4
					c0,2.6-0.5,5.1-1.4,7.4s-2.3,4.3-4.1,6c-1.7,1.7-3.8,3.1-6.3,4.1c-2.5,1-5.2,1.5-8.1,1.5c-3,0-5.7-0.5-8.1-1.4
					c-2.4-1-4.4-2.3-6.1-4c-1.7-1.7-3-3.8-3.9-6.2c-0.9-2.4-1.3-5.1-1.3-8.1c0-2.7,0.5-5.4,1.6-8.2s2.8-5.7,5-8.7l13.5-18.1
					c0.5-0.6,1.2-1.2,2-1.6c0.9-0.4,1.9-0.7,3.1-0.7h8.6l-16.7,20.5c-0.4,0.4-0.7,0.9-1,1.2s-0.6,0.8-1,1.2c1.1-0.5,2.3-1,3.5-1.3
					C514.3,1898.7,515.7,1898.5,517.1,1898.5z M503.7,1916c0,1.6,0.2,3,0.6,4.3c0.4,1.3,1.1,2.4,1.9,3.3s1.9,1.6,3.1,2.1
					s2.7,0.8,4.3,0.8c1.5,0,2.9-0.3,4.2-0.8c1.3-0.5,2.4-1.2,3.3-2.2c0.9-0.9,1.6-2,2.2-3.3c0.5-1.3,0.8-2.6,0.8-4.1
					c0-1.6-0.2-3.1-0.7-4.3s-1.2-2.4-2.1-3.3c-0.9-0.9-2-1.6-3.3-2c-1.3-0.5-2.7-0.7-4.2-0.7c-1.5,0-2.9,0.3-4.2,0.8
					s-2.3,1.2-3.2,2.2c-0.9,0.9-1.6,2-2.1,3.3S503.7,1914.6,503.7,1916z"/>
				<path class="st3" d="M579.5,1905.6c0,4.9-0.5,9.2-1.6,12.8s-2.5,6.6-4.4,9c-1.9,2.4-4.1,4.1-6.6,5.3c-2.5,1.2-5.3,1.7-8.2,1.7
					s-5.7-0.6-8.2-1.7c-2.5-1.2-4.7-2.9-6.5-5.3c-1.8-2.4-3.3-5.4-4.3-9s-1.6-7.9-1.6-12.8c0-4.9,0.5-9.2,1.6-12.8
					c1-3.6,2.5-6.6,4.3-9c1.8-2.4,4-4.1,6.5-5.3c2.5-1.2,5.2-1.7,8.2-1.7s5.7,0.6,8.2,1.7s4.7,2.9,6.6,5.3c1.9,2.4,3.3,5.4,4.4,9
					C579,1896.3,579.5,1900.6,579.5,1905.6z M569.6,1905.6c0-4.1-0.3-7.5-0.9-10.1c-0.6-2.7-1.4-4.8-2.4-6.4c-1-1.6-2.2-2.7-3.5-3.3
					c-1.3-0.6-2.7-1-4.1-1c-1.4,0-2.7,0.3-4,1c-1.3,0.6-2.4,1.7-3.4,3.3c-1,1.6-1.8,3.7-2.4,6.4s-0.9,6.1-0.9,10.1
					c0,4.1,0.3,7.5,0.9,10.1s1.4,4.8,2.4,6.4s2.1,2.7,3.4,3.3s2.6,1,4,1c1.4,0,2.8-0.3,4.1-1c1.3-0.6,2.5-1.7,3.5-3.3
					s1.8-3.7,2.4-6.4C569.3,1913,569.6,1909.6,569.6,1905.6z"/>
			</g>
			<circle class="st3" cx="582.5" cy="1860.9" r="7.8"/>
			<path class="st1" d="M580.1,1919.5l-11.2-4.1l-6.1,8.9l8.7,8.6l7.3-4.8L580.1,1919.5z"/>
			<path class="st3" d="M553,1942.4c-1.1-1.5-0.9-3.6,0.6-4.7c0,0,0,0,0,0l9.9-7.7l-8.3-10.6c-1.2-1.5-0.9-3.6,0.6-4.7
				c1.5-1.2,3.6-0.9,4.7,0.6c0,0,0,0,0,0l9.7,12.4c0.2,0.3,0.4,0.6,0.5,1l0,0c1.1,1.5,0.9,3.6-0.6,4.7c0,0,0,0,0,0l-12.4,9.7
				C556.3,1944.2,554.2,1943.9,553,1942.4C553,1942.4,553,1942.4,553,1942.4L553,1942.4z"/>
			<circle class="st3" cx="573.1" cy="1917.9" r="5"/>
			<circle class="st1" cx="582.5" cy="1860.9" r="3.4"/>
		</g>
	</g>
</g>
</svg>
