<svg width="190" height="190" viewBox="0 0 190 190" fill="none" xmlns="http://www.w3.org/2000/svg">
<g opacity="0.5">
<path opacity="0.5" d="M95 188C138.078 188 173 153.078 173 110C173 66.9218 138.078 32 95 32C51.9218 32 17 66.9218 17 110C17 153.078 51.9218 188 95 188Z" fill="url(#paint0_linear)"/>
</g>
<path d="M95.1551 185.849C137.321 185.849 171.503 151.667 171.503 109.501C171.503 67.335 137.321 33.1528 95.1551 33.1528C52.9893 33.1528 18.8071 67.335 18.8071 109.501C18.8071 151.667 52.9893 185.849 95.1551 185.849Z" fill="#F5F5F5"/>
<path d="M137.246 117.027C137.246 142.477 118.964 155 95.2198 155C71.4758 155 51.2788 142.477 51.2788 117.027C51.2788 91.5767 70.5248 70.9478 94.2628 70.9478C118.001 70.9478 137.246 91.5557 137.246 117.027Z" fill="#333333"/>
<path d="M95.2191 186.151C110.17 186.177 124.799 181.801 137.279 173.568C134.46 158.168 123.731 157.282 123.731 157.282H64.576C64.576 157.282 54.461 158.111 51.291 172.282C64.1511 181.328 79.4961 186.171 95.2191 186.147V186.151Z" fill="#F26322" stroke="#F26322" stroke-width="2"/>
<path opacity="0.1" d="M82.499 138.474H106.162V157.403C106.165 158.96 105.86 160.502 105.265 161.942C104.67 163.381 103.797 164.689 102.696 165.789C101.594 166.89 100.286 167.763 98.8466 168.357C97.407 168.951 95.8643 169.255 94.307 169.252C91.17 169.252 88.1615 168.005 85.9434 165.787C83.7252 163.569 82.479 160.561 82.479 157.424V138.474H82.499Z" fill="black"/>
<path d="M84.752 137.619H103.897C104.496 137.619 105.071 137.857 105.494 138.281C105.918 138.704 106.156 139.279 106.156 139.878V156.548C106.156 158.103 105.849 159.643 105.254 161.079C104.658 162.515 103.785 163.82 102.685 164.919C101.584 166.017 100.278 166.888 98.8405 167.481C97.4032 168.074 95.8629 168.378 94.308 168.376C91.171 168.376 88.1625 167.13 85.9443 164.911C83.7262 162.693 82.48 159.685 82.48 156.548V139.871C82.48 139.574 82.5384 139.28 82.6519 139.006C82.7655 138.732 82.9319 138.483 83.1416 138.273C83.3514 138.064 83.6004 137.897 83.8745 137.784C84.1486 137.67 84.4423 137.612 84.739 137.612L84.752 137.619Z" fill="white"/>
<path opacity="0.1" d="M82.5459 147.507C90.172 150.357 98.5668 150.381 106.209 147.574V144.668H82.5459V147.507Z" fill="black"/>
<path d="M94.416 149.144C113.146 149.144 128.33 133.96 128.33 115.23C128.33 96.4997 113.146 81.3159 94.416 81.3159C75.6858 81.3159 60.502 96.4997 60.502 115.23C60.502 133.96 75.6858 149.144 94.416 149.144Z" fill="white"/>
<path opacity="0.1" d="M55.333 117.496C55.333 117.496 76.454 114.933 92.423 94.46C92.423 94.46 113.544 117.712 128.259 115.149C128.259 115.149 136.79 106.187 128.259 97.231C119.728 88.275 113.113 76.967 101.811 78.457C90.509 79.947 76.637 80.588 70.669 85.922C64.701 91.256 55.333 117.496 55.333 117.496Z" fill="black"/>
<path d="M55.333 117.072C55.333 117.072 76.454 114.509 92.423 94.0357C92.423 94.0357 113.544 117.288 128.259 114.725C128.259 114.725 136.79 105.763 128.259 96.8067C119.728 87.8507 113.113 76.5427 101.811 78.0327C90.509 79.5227 76.664 80.1327 70.696 85.5327C64.728 90.9327 55.333 117.072 55.333 117.072Z" fill="#333333"/>
<path d="M128.253 121.122C129.996 121.122 131.409 118.474 131.409 115.208C131.409 111.942 129.996 109.294 128.253 109.294C126.51 109.294 125.097 111.942 125.097 115.208C125.097 118.474 126.51 121.122 128.253 121.122Z" fill="white"/>
<defs>
<linearGradient id="paint0_linear" x1="95" y1="188" x2="95" y2="32" gradientUnits="userSpaceOnUse">
<stop stop-color="#808080" stop-opacity="0.251"/>
<stop offset="0.54" stop-color="#808080" stop-opacity="0.122"/>
<stop offset="1" stop-color="#808080" stop-opacity="0.102"/>
</linearGradient>
</defs>
</svg>
