<svg width="192" height="190" viewBox="0 0 192 190" fill="none" xmlns="http://www.w3.org/2000/svg">
<path fill-rule="evenodd" clip-rule="evenodd" d="M20.216 54.1524C22.0361 53.2409 23.9633 52.562 25.9522 52.1318L27.5172 46.7308L36.7753 47.2372L37.7152 52.7669C39.6425 53.3927 41.4782 54.2724 43.1741 55.3829L48.0565 52.6376L54.2487 59.6762L50.9883 64.2446C51.8976 66.0681 52.5746 67.9989 53.0034 69.9917L58.3934 71.5572L57.8854 80.8338L52.3663 81.7772C51.7412 83.7085 50.8627 85.5481 49.754 87.2476L52.4925 92.1389L45.4694 98.2976L40.911 95.0321C39.0918 95.9438 37.1655 96.6231 35.1776 97.0539L33.6136 102.455L24.3555 101.949L23.4151 96.4247C21.4878 95.7989 19.6521 94.9192 17.9562 93.8087L13.0738 96.554L6.8712 89.6086L10.1315 85.0402C9.22247 83.2177 8.54541 81.2879 8.11627 79.2961L2.72666 77.7257L3.2346 68.45L8.75363 67.5067C9.37878 65.5754 10.2572 63.7358 11.366 62.0362L8.62745 57.145L15.5589 50.928L20.2179 54.1526L20.216 54.1524Z" stroke="#F26322" stroke-width="2.0009"/>
<path fill-rule="evenodd" clip-rule="evenodd" d="M157.449 118.207C158.938 117.414 160.526 116.823 162.17 116.449L163.39 111.926L171.097 112.23L171.958 116.852C173.573 117.361 175.117 118.075 176.551 118.977L180.602 116.648L185.846 122.338L183.206 126.191C183.997 127.684 184.587 129.275 184.96 130.924L189.474 132.144L189.171 139.867L184.558 140.73C184.049 142.349 183.335 143.896 182.434 145.334L184.758 149.393L179.08 154.647L175.235 152.002C173.746 152.795 172.158 153.386 170.513 153.76L169.296 158.283L161.589 157.979L160.727 153.357C159.112 152.847 157.568 152.132 156.134 151.229L152.084 153.558L146.839 147.868L149.479 144.015C148.687 142.523 148.097 140.932 147.724 139.284L143.21 138.064L143.514 130.34L148.126 129.477C148.634 127.859 149.347 126.312 150.247 124.875L147.926 120.816L153.604 115.562L157.449 118.207Z" stroke="#F26322" stroke-width="2.0009"/>
<path d="M31.8795 108.763C31.4017 107.95 31.0166 107.086 30.7313 106.187C30.3866 105.295 30.1341 104.371 29.9778 103.428C30.0413 103.407 30.4133 104.627 30.9393 106.075C31.3017 106.953 31.6156 107.85 31.8795 108.763V108.763Z" fill="#263238"/>
<path d="M37.6847 118.483C36.9994 117.827 36.3969 117.088 35.8907 116.285C35.3201 115.531 34.8428 114.71 34.4693 113.841C34.5324 113.821 35.1959 114.863 36.0987 116.173C36.6686 116.914 37.198 117.685 37.6847 118.483V118.483Z" fill="#263238"/>
<path d="M45.9488 126.167C45.134 125.694 44.3499 125.17 43.6009 124.598C42.8476 124.019 42.1561 123.363 41.5376 122.642C42.315 123.174 43.0523 123.764 43.7434 124.405C44.5239 124.933 45.2614 125.522 45.9488 126.167V126.167Z" fill="#263238"/>
<path d="M53.4219 129.935C52.487 129.74 51.5782 129.436 50.7141 129.028C49.8105 128.729 48.9573 128.294 48.1833 127.739C48.2027 127.698 49.3789 128.197 50.812 128.816C52.2452 129.435 53.4416 129.892 53.4219 129.935Z" fill="#263238"/>
<path d="M64.3946 132.408C63.4567 132.4 62.5212 132.311 61.5987 132.141C60.6557 132.018 59.7286 131.793 58.8333 131.472C58.8531 131.429 60.1059 131.65 61.6127 131.887C62.5524 131.986 63.4827 132.16 64.3946 132.408V132.408Z" fill="#263238"/>
<path d="M75.6794 132.414C74.7554 132.638 73.8088 132.755 72.8581 132.763C71.9088 132.863 70.9511 132.852 70.0042 132.732C69.9811 132.668 71.2478 132.635 72.8069 132.533C73.7598 132.418 74.7203 132.378 75.6794 132.414V132.414Z" fill="#263238"/>
<path d="M86.5908 129.633C85.7681 130.112 84.882 130.472 83.9587 130.701C83.0764 131.044 82.1506 131.261 81.2082 131.347C82.0867 130.99 82.9895 130.697 83.9096 130.47C85.3787 130.009 86.5678 129.572 86.5908 129.633Z" fill="#263238"/>
<path d="M96.1707 123.774C95.5228 124.476 94.7962 125.101 94.0053 125.636C93.2646 126.227 92.4549 126.726 91.5941 127.121C91.5719 127.058 92.6289 126.351 93.8888 125.425C95.1486 124.499 96.1477 123.712 96.1707 123.774Z" fill="#263238"/>
<path d="M104.156 115.757C103.589 116.518 102.975 117.243 102.316 117.927C101.701 118.645 101.026 119.308 100.299 119.911C100.867 119.149 101.483 118.425 102.143 117.742C102.764 117.031 103.437 116.368 104.156 115.757V115.757Z" fill="#263238"/>
<path d="M111.973 107.553C111.389 108.294 110.752 108.992 110.067 109.641C109.421 110.336 108.733 110.991 108.007 111.603C108.57 110.851 109.193 110.146 109.87 109.495C110.317 109.01 110.792 108.552 111.292 108.122C111.48 107.89 111.711 107.696 111.973 107.553V107.553Z" fill="#263238"/>
<path d="M120.774 100.486C120.057 101.101 119.304 101.674 118.52 102.201C117.779 102.792 117.003 103.336 116.197 103.833C116.843 103.149 117.564 102.54 118.345 102.016C119.086 101.404 119.903 100.89 120.774 100.486V100.486Z" fill="#263238"/>
<path d="M131.152 96.0884C131.173 96.1533 129.939 96.4632 128.47 96.9253C127.586 97.266 126.684 97.5585 125.768 97.8013C126.59 97.3202 127.466 96.9415 128.379 96.6736C129.272 96.3522 130.205 96.1552 131.152 96.0884V96.0884Z" fill="#263238"/>
<path d="M142.363 96.0613C142.343 96.1038 141.113 95.9462 139.566 95.7955C138.02 95.6448 136.75 95.5717 136.77 95.5283C137.718 95.408 138.678 95.4192 139.624 95.5615C140.553 95.6227 141.472 95.7904 142.363 96.0613V96.0613Z" fill="#263238"/>
<path d="M155.723 100.955C155.703 100.997 154.547 100.456 153.113 99.8355C151.68 99.2151 150.485 98.7591 150.504 98.7166C151.439 98.9121 152.348 99.2166 153.212 99.624C154.118 99.9215 154.967 100.372 155.723 100.955V100.955Z" fill="#263238"/>
<path d="M164.441 108.118C164.376 108.145 163.549 107.231 162.398 106.118C161.289 105.026 160.335 104.161 160.396 104.137C161.195 104.658 161.923 105.28 162.563 105.987C163.3 106.59 163.934 107.31 164.441 108.118V108.118Z" fill="#263238"/>
<path fill-rule="evenodd" clip-rule="evenodd" d="M80.8146 93.917C83.1378 92.7403 85.6056 91.8756 88.1543 91.3451L90.1573 84.4066L102.06 85.0533L103.269 92.1694C105.755 92.9652 108.117 94.1067 110.286 95.5605L116.6 92.0608L124.558 100.982L120.4 106.866C121.575 109.194 122.438 111.667 122.967 114.221L129.891 116.228L129.246 128.155L122.144 129.366C121.35 131.857 120.211 134.224 118.76 136.397L122.253 142.724L113.35 150.698L107.477 146.532C105.155 147.709 102.689 148.574 100.141 149.105L98.1383 156.043L86.2355 155.397L85.0267 148.281C82.5408 147.485 80.1788 146.343 78.0096 144.89L71.6953 148.389L63.7337 139.467L67.8916 133.583C66.7172 131.256 65.8538 128.785 65.3235 126.233L58.3994 124.222L59.0448 112.294L66.1466 111.083C66.9407 108.592 68.0799 106.225 69.5308 104.052L66.0391 97.7246L74.9421 89.7508L80.8146 93.917V93.917Z" fill="white" stroke="#121112" stroke-width="2.0009"/>
</svg>
