<svg width="190" height="191" viewBox="0 0 190 191" fill="none" xmlns="http://www.w3.org/2000/svg">
<path d="M130.178 98.2715C139.812 98.2715 147.621 90.8375 147.621 81.6673C147.621 72.4971 139.812 65.0631 130.178 65.0631C120.544 65.0631 112.735 72.4971 112.735 81.6673C112.735 90.8375 120.544 98.2715 130.178 98.2715Z" fill="#F26322"/>
<path d="M177.888 94.0477C177.926 94.0408 177.955 94.0151 178 94.022C177.98 93.95 177.954 93.8796 177.923 93.8115L177.761 94.021L177.888 94.0477Z" fill="white"/>
<path d="M61.302 120.966C61.4038 124.59 62.0414 128.181 63.1958 131.635C63.2218 131.715 63.2498 131.794 63.2778 131.874H70.3448C70.3375 131.802 70.3292 131.722 70.322 131.635C69.8508 126.478 67.1341 95.0946 70.3822 89.7278C70.0978 90.1624 60.7541 104.583 61.302 120.966Z" fill="#E6E6E6"/>
<path d="M61.8503 131.635C61.9094 131.715 61.9706 131.795 62.0339 131.874H67.3357L67.1946 131.635C66.3187 130.131 63.7265 125.632 61.32 120.967C58.734 115.954 56.3617 110.753 56.5609 108.87C56.4997 109.296 54.7096 122.241 61.8503 131.635Z" fill="#E6E6E6"/>
<path d="M116.743 132.496C116.654 135.655 116.098 138.785 115.092 141.796C115.069 141.866 115.045 141.934 115.02 142.004H108.859C108.866 141.942 108.873 141.872 108.879 141.796C109.294 137.3 111.658 109.939 108.826 105.26C109.074 105.641 117.22 118.213 116.743 132.496Z" fill="#E6E6E6"/>
<path d="M116.267 141.797C116.215 141.867 116.163 141.936 116.107 142.005H111.485L111.607 141.797C112.371 140.485 114.631 136.561 116.729 132.497C118.984 128.128 121.052 123.593 120.879 121.951C120.931 122.322 122.491 133.607 116.267 141.797Z" fill="#E6E6E6"/>
<path d="M46.5531 39.5166L49.4266 37.3291C48.7039 37.175 47.9469 37.277 47.2974 37.616C46.6479 37.955 46.1505 38.5078 45.8983 39.1708C44.7005 38.7925 43.3956 38.8693 42.2559 39.3852L48.0049 41.3721C47.7157 40.6348 47.2117 39.9911 46.5521 39.5166H46.5531Z" fill="#3F3D56"/>
<path d="M132.764 28.2576L135.638 26.0701C134.915 25.916 134.158 26.0179 133.508 26.3569C132.859 26.6959 132.361 27.2487 132.109 27.9118C130.911 27.5334 129.607 27.6103 128.467 28.1262L134.216 30.1131C133.927 29.3757 133.423 28.7321 132.763 28.2576H132.764Z" fill="#3F3D56"/>
<path d="M174.877 114.76C174.877 116.573 174.81 118.37 174.678 120.154C173.654 134.219 168.531 147.735 159.882 159.181C158.752 160.683 157.565 162.142 156.322 163.559C153.101 167.237 149.524 170.618 145.64 173.66L128.611 164.148L118.43 141.527C118.43 141.527 133.621 112.249 174.85 112.782C174.867 113.439 174.876 114.098 174.877 114.76Z" fill="#121112"/>
<path d="M174.676 120.153C173.893 130.664 170.829 140.906 165.679 150.233C160.528 159.56 153.403 167.77 144.752 174.344L128.932 165.509L119.903 145.448C119.903 145.448 134.535 117.251 174.676 120.153Z" fill="#F26322"/>
<path d="M159.882 159.181C158.757 160.683 157.575 162.142 156.337 163.559C148.053 173.079 137.454 180.53 125.459 185.266C123.032 186.223 120.548 187.066 118.007 187.797C99.6607 192.462 80.2141 191.283 62.638 184.439C45.2281 177 31.1752 163.896 23.0037 147.481C21.903 145.268 20.913 142.999 20.0337 140.675C35.3652 129.938 65.5758 114.563 98.5011 129.502C107.609 133.635 115.741 137.402 122.898 140.803C141.062 149.409 153.147 155.612 159.882 159.181Z" fill="#121112"/>
<path d="M156.322 163.559C147.769 173.378 136.751 180.983 124.289 185.67C111.826 190.356 98.3229 191.973 85.0297 190.369C71.7364 188.765 59.0835 183.994 48.2432 176.496C37.403 168.999 28.7263 159.018 23.0171 147.479C35.8186 137.798 65.3453 120.404 97.7486 135.107C106.082 138.889 113.521 142.336 120.067 145.449C139.149 154.492 150.905 160.636 156.322 163.559Z" fill="#F26322"/>
<path d="M134.225 181.451C131.532 182.872 128.756 184.146 125.911 185.265C109.525 191.679 91.3702 192.746 74.2806 188.3C57.191 183.854 42.1295 174.145 31.4487 160.691C50.5784 158.771 103.455 156.184 134.225 181.451Z" fill="#121112"/>
<path d="M125.91 185.266C110.895 191.143 94.3592 192.542 78.4907 189.279C62.6221 186.016 48.168 178.244 37.04 166.992C43.9981 166.026 98.6245 159.342 125.91 185.266Z" fill="#F26322"/>
<path d="M161.442 72.4806C104.251 32.2301 38.7266 60.5606 38.2202 60.778C46.6061 52.8173 56.7421 46.7257 67.8983 42.9417C79.0545 39.1578 90.9533 37.7757 102.738 38.8949C114.523 40.0141 125.9 43.6068 136.051 49.4144C146.202 55.2219 154.874 63.0997 161.442 72.4806V72.4806Z" fill="#E6E6E6"/>
<path d="M43.4073 116.237C53.0822 114.577 58.0397 97.9977 54.4804 79.2068C50.921 60.4159 40.1926 46.529 30.5178 48.1895C20.843 49.8501 15.8854 66.4292 19.4448 85.2201C23.0041 104.011 33.7325 117.898 43.4073 116.237Z" fill="#121112"/>
<path d="M45.8931 138.184C45.3193 96.9092 30.8117 58.1759 30.6654 57.7897L29.3423 58.2441C29.4876 58.6283 43.9163 97.159 44.487 138.202L45.8931 138.184Z" fill="#F26322"/>
<path d="M20.1533 77.5437L19.7202 78.8185L37.0887 84.1652L37.5218 82.8904L20.1533 77.5437Z" fill="#F26322"/>
<path d="M52.7236 76.1095L38.4131 86.8977L39.2867 87.9478L53.5973 77.1595L52.7236 76.1095Z" fill="#F26322"/>
<path d="M89.6545 110.286C100.292 110.286 108.916 93.5369 108.916 72.8756C108.916 52.2144 100.292 35.4651 89.6545 35.4651C79.0167 35.4651 70.3931 52.2144 70.3931 72.8756C70.3931 93.5369 79.0167 110.286 89.6545 110.286Z" fill="#121112"/>
<path d="M87.8736 134.112C95.5881 90.0559 87.9514 46.1544 87.8736 45.7158L86.373 45.9578C86.4509 46.3935 94.044 90.0628 86.373 133.873L87.8736 134.112Z" fill="#F26322"/>
<path d="M72.7279 64.8322L72.0098 66.1102L89.4287 74.9793L90.1468 73.7012L72.7279 64.8322Z" fill="#F26322"/>
<path d="M107.736 69.274L90.3193 78.1477L91.0379 79.4255L108.454 70.5519L107.736 69.274Z" fill="#F26322"/>
<path d="M172.991 98.2527C165.924 94.4758 158.541 91.2623 150.916 88.6452C108.759 74.1243 66.9553 79.7213 50.5923 100.499C63.3263 75.04 108.764 67.0348 154.616 82.828C159.953 84.6646 165.175 86.7885 170.259 89.1895C171.367 92.1536 172.279 95.1805 172.991 98.2527V98.2527Z" fill="#E6E6E6"/>
<path d="M116.282 57.2856L119.155 55.0981C118.432 54.9439 117.675 55.0459 117.026 55.3849C116.376 55.7239 115.879 56.2767 115.627 56.9397C114.429 56.5614 113.124 56.6382 111.984 57.1541L117.733 59.1411C117.445 58.4038 116.941 57.7602 116.282 57.2856V57.2856Z" fill="#3F3D56"/>
</svg>
