<svg width="190" height="190" viewBox="0 0 190 190" fill="none" xmlns="http://www.w3.org/2000/svg">
<path d="M133 53.5H28C21.0964 53.5 15.5 59.0964 15.5 66V154C15.5 160.904 21.0964 166.5 28 166.5H133C139.904 166.5 145.5 160.904 145.5 154V66C145.5 59.0964 139.904 53.5 133 53.5Z" stroke="#121112"/>
<path d="M163 68H58C50.8203 68 45 73.8203 45 81V116C45 123.18 50.8203 129 58 129H163C170.18 129 176 123.18 176 116V81C176 73.8203 170.18 68 163 68Z" fill="#F26322" fill-opacity="0.06"/>
<path d="M163 68.5H58C51.0964 68.5 45.5 74.0964 45.5 81V116C45.5 122.904 51.0964 128.5 58 128.5H163C169.904 128.5 175.5 122.904 175.5 116V81C175.5 74.0964 169.904 68.5 163 68.5Z" stroke="#F26322"/>
<path d="M46.7111 146.037C46.7111 146.203 46.7111 146.368 46.6981 146.53C46.5733 148.957 45.5212 151.244 43.759 152.918C41.9968 154.592 39.6591 155.525 37.2286 155.525C34.7981 155.525 32.4603 154.592 30.6982 152.918C28.936 151.244 27.8839 148.957 27.7591 146.53C27.7501 146.369 27.7461 146.203 27.7461 146.037C27.7461 143.522 28.7452 141.11 30.5235 139.332C32.3018 137.553 34.7137 136.554 37.2286 136.554C39.7435 136.554 42.1554 137.553 43.9337 139.332C45.7121 141.11 46.7111 143.522 46.7111 146.037Z" fill="#121112"/>
<path d="M133.633 139.714H59.1261C58.9152 139.709 58.7054 139.746 58.509 139.823C58.3126 139.9 58.1336 140.015 57.9826 140.163C57.8315 140.31 57.7115 140.486 57.6295 140.68C57.5476 140.875 57.5054 141.084 57.5054 141.295C57.5054 141.506 57.5476 141.714 57.6295 141.909C57.7115 142.103 57.8315 142.279 57.9826 142.427C58.1336 142.574 58.3126 142.689 58.509 142.766C58.7054 142.843 58.9152 142.88 59.1261 142.875H133.633C133.844 142.88 134.054 142.843 134.25 142.766C134.447 142.689 134.626 142.574 134.777 142.427C134.928 142.279 135.048 142.103 135.13 141.909C135.212 141.714 135.254 141.506 135.254 141.295C135.254 141.084 135.212 140.875 135.13 140.68C135.048 140.486 134.928 140.31 134.777 140.163C134.626 140.015 134.447 139.9 134.25 139.823C134.054 139.746 133.844 139.709 133.633 139.714Z" fill="#121112"/>
<path d="M91.1852 149.199H59.1252C58.7134 149.209 58.322 149.38 58.0345 149.675C57.7469 149.97 57.5859 150.366 57.5859 150.777C57.5859 151.189 57.7469 151.585 58.0345 151.88C58.322 152.175 58.7134 152.346 59.1252 152.356H91.1852C91.5969 152.346 91.9884 152.175 92.2759 151.88C92.5635 151.585 92.7245 151.189 92.7245 150.777C92.7245 150.366 92.5635 149.97 92.2759 149.675C91.9884 149.38 91.5969 149.209 91.1852 149.199Z" fill="#121112"/>
<path d="M73.1611 87.0659C72.7419 87.0659 72.3399 87.2324 72.0435 87.5288C71.7471 87.8252 71.5806 88.2272 71.5806 88.6464C71.5806 89.0656 71.7471 89.4676 72.0435 89.764C72.3399 90.0604 72.7419 90.2269 73.1611 90.2269H147.667C148.086 90.2269 148.488 90.0604 148.785 89.764C149.081 89.4676 149.248 89.0656 149.248 88.6464C149.248 88.2272 149.081 87.8252 148.785 87.5288C148.488 87.2324 148.086 87.0659 147.667 87.0659H73.1611Z" fill="#F26322"/>
<path d="M73.1611 96.2229C72.7419 96.2229 72.3399 96.3894 72.0435 96.6858C71.7471 96.9822 71.5806 97.3842 71.5806 97.8034C71.5806 98.2226 71.7471 98.6246 72.0435 98.921C72.3399 99.2174 72.7419 99.3839 73.1611 99.3839H147.667C148.086 99.3839 148.488 99.2174 148.785 98.921C149.081 98.6246 149.248 98.2226 149.248 97.8034C149.248 97.3842 149.081 96.9822 148.785 96.6858C148.488 96.3894 148.086 96.2229 147.667 96.2229H73.1611Z" fill="#F26322"/>
<path d="M73.1611 105.27C72.7419 105.27 72.3399 105.437 72.0435 105.733C71.7471 106.029 71.5806 106.431 71.5806 106.851C71.5806 107.27 71.7471 107.672 72.0435 107.968C72.3399 108.265 72.7419 108.431 73.1611 108.431H105.221C105.64 108.431 106.042 108.265 106.339 107.968C106.635 107.672 106.802 107.27 106.802 106.851C106.802 106.431 106.635 106.029 106.339 105.733C106.042 105.437 105.64 105.27 105.221 105.27H73.1611Z" fill="#F26322"/>
</svg>
