<svg width="190" height="190" viewBox="0 0 190 190" fill="none" xmlns="http://www.w3.org/2000/svg">
<path d="M86.126 138.468C112.292 138.468 133.504 117.321 133.504 91.234C133.504 65.1474 112.292 44 86.126 44C59.9599 44 38.748 65.1474 38.748 91.234C38.748 117.321 59.9599 138.468 86.126 138.468Z" stroke="#F26322" stroke-width="2"/>
<path opacity="0.3" d="M86.1271 99.893C84.4567 99.893 82.8238 99.3976 81.4348 98.4696C80.0459 97.5415 78.9633 96.2224 78.324 94.6791C77.6848 93.1358 77.5176 91.4376 77.8435 89.7992C78.1693 88.1609 78.9737 86.6559 80.1549 85.4747C81.3361 84.2935 82.8411 83.4892 84.4794 83.1633C86.1178 82.8374 87.816 83.0046 89.3593 83.6439C90.9026 84.2831 92.2217 85.3657 93.1497 86.7546C94.0778 88.1435 94.5732 89.7765 94.5732 91.447C94.5732 92.5561 94.3547 93.6544 93.9302 94.6791C93.5058 95.7038 92.8837 96.6349 92.0994 97.4192C91.3151 98.2035 90.384 98.8256 89.3593 99.2501C88.3346 99.6745 87.2363 99.893 86.1271 99.893ZM86.1271 83.414C84.5382 83.414 82.9849 83.8852 81.6637 84.7679C80.3425 85.6507 79.3128 86.9055 78.7047 88.3735C78.0966 89.8415 77.9375 91.4569 78.2475 93.0153C78.5575 94.5738 79.3227 96.0053 80.4462 97.1289C81.5698 98.2525 83.0014 99.0176 84.5598 99.3276C86.1183 99.6376 87.7336 99.4785 89.2017 98.8704C90.6697 98.2623 91.9244 97.2326 92.8072 95.9114C93.69 94.5902 94.1611 93.0369 94.1611 91.448C94.1611 89.3172 93.3147 87.2737 91.8081 85.7671C90.3014 84.2604 88.2579 83.414 86.1271 83.414Z" fill="#F26322"/>
<path opacity="0.3" d="M86.1271 107.517C82.9493 107.517 79.843 106.575 77.2008 104.809C74.5586 103.044 72.4992 100.535 71.2831 97.5986C70.067 94.6628 69.7488 91.4322 70.3688 88.3155C70.9887 85.1988 72.519 82.336 74.766 80.089C77.013 77.842 79.8759 76.3117 82.9926 75.6918C86.1093 75.0718 89.3398 75.39 92.2756 76.6061C95.2115 77.8222 97.7208 79.8815 99.4863 82.5237C101.252 85.1659 102.194 88.2723 102.194 91.4501C102.194 95.7113 100.501 99.798 97.4882 102.811C94.475 105.824 90.3883 107.517 86.1271 107.517ZM86.1271 75.7951C83.0308 75.7951 80.0041 76.7132 77.4296 78.4334C74.8552 80.1536 72.8487 82.5986 71.6638 85.4592C70.4789 88.3197 70.1689 91.4674 70.7729 94.5042C71.377 97.541 72.8679 100.33 75.0573 102.52C77.2467 104.709 80.0362 106.2 83.073 106.804C86.1097 107.408 89.2574 107.098 92.118 105.913C94.9786 104.729 97.4236 102.722 99.1438 100.148C100.864 97.5731 101.782 94.5463 101.782 91.4501C101.782 89.3941 101.377 87.3583 100.591 85.4588C99.804 83.5594 98.6509 81.8335 97.1972 80.3797C95.7435 78.9258 94.0177 77.7726 92.1182 76.9858C90.2188 76.199 88.183 75.7941 86.1271 75.7941V75.7951Z" fill="#F26322"/>
<path opacity="0.3" d="M86.1268 114.111C81.6453 114.111 77.2644 112.782 73.5381 110.292C69.8119 107.802 66.9076 104.264 65.1926 100.123C63.4776 95.9828 63.0289 91.4269 63.9032 87.0314C64.7775 82.636 66.9355 78.5986 70.1045 75.4297C73.2734 72.2607 77.3109 70.1027 81.7063 69.2284C86.1017 68.3541 90.6576 68.8028 94.798 70.5178C98.9384 72.2328 102.477 75.1371 104.967 78.8633C107.457 82.5896 108.786 86.9705 108.786 91.452C108.786 97.4615 106.399 103.225 102.149 107.474C97.8998 111.724 92.1363 114.111 86.1268 114.111ZM86.1268 69.205C81.7268 69.205 77.4256 70.5098 73.7671 72.9543C70.1086 75.3988 67.2571 78.8733 65.5733 82.9384C63.8895 87.0035 63.4489 91.4767 64.3073 95.7921C65.1657 100.108 67.2845 104.072 70.3958 107.183C73.5071 110.294 77.4712 112.413 81.7867 113.272C86.1021 114.13 90.5752 113.689 94.6404 112.006C98.7055 110.322 102.18 107.47 104.624 103.812C107.069 100.153 108.374 95.852 108.374 91.452C108.374 85.5517 106.03 79.8931 101.858 75.721C97.6857 71.5489 92.0271 69.205 86.1268 69.205Z" fill="#F26322"/>
<path opacity="0.3" d="M86.127 122.766C79.934 122.766 73.8802 120.93 68.7309 117.489C63.5816 114.049 59.5683 109.159 57.1984 103.437C54.8284 97.7157 54.2084 91.42 55.4167 85.3461C56.625 79.2722 59.6073 73.693 63.9864 69.3141C68.3656 64.9352 73.945 61.9533 80.0189 60.7454C86.0929 59.5375 92.3886 60.1579 98.11 62.5282C103.831 64.8985 108.721 68.9122 112.161 74.0617C115.602 79.2111 117.438 85.2651 117.437 91.458C117.427 99.7587 114.125 107.716 108.255 113.586C102.386 119.455 94.4276 122.757 86.127 122.766ZM86.127 60.557C80.0155 60.557 74.0413 62.3693 68.9598 65.7646C63.8784 69.16 59.9178 73.9859 57.579 79.6321C55.2403 85.2784 54.6284 91.4913 55.8207 97.4853C57.013 103.479 59.9559 108.985 64.2773 113.307C68.5988 117.628 74.1046 120.571 80.0986 121.763C86.0926 122.956 92.3056 122.344 97.9518 120.005C103.598 117.666 108.424 113.706 111.819 108.624C115.215 103.543 117.027 97.5685 117.027 91.457C117.018 83.2646 113.76 75.4103 107.967 69.6174C102.174 63.8245 94.3194 60.566 86.127 60.557Z" fill="#F26322"/>
<path opacity="0.3" d="M86.1261 129.816C78.542 129.788 71.1363 127.513 64.8441 123.279C58.5518 119.045 53.6552 113.041 50.7725 106.026C47.8897 99.0115 47.1501 91.2997 48.647 83.8648C50.1439 76.4298 53.8102 69.605 59.183 64.2522C64.5558 58.8994 71.3941 55.2585 78.8345 53.7893C86.275 52.3201 93.984 53.0884 100.988 55.9972C107.992 58.906 113.978 63.8249 118.188 70.1328C122.399 76.4408 124.646 83.8549 124.646 91.439C124.616 101.633 120.543 111.398 113.322 118.593C106.1 125.787 96.3198 129.823 86.1261 129.816ZM86.1261 53.473C78.623 53.5009 71.2963 55.7513 65.0712 59.9401C58.8461 64.1289 54.0018 70.0683 51.1498 77.0083C48.2978 83.9484 47.566 91.5778 49.0469 98.9334C50.5279 106.289 54.1551 113.041 59.4705 118.337C64.786 123.632 71.5514 127.234 78.9124 128.688C86.2735 130.141 93.9002 129.381 100.83 126.503C107.759 123.625 113.68 118.759 117.846 112.518C122.011 106.277 124.234 98.9422 124.234 91.439C124.204 81.3546 120.174 71.6939 113.03 64.5765C105.886 57.459 96.2106 53.4658 86.1261 53.473Z" fill="#F26322"/>
<path opacity="0.3" d="M86.1279 95.1549C88.2895 95.1549 90.0419 93.4025 90.0419 91.2409C90.0419 89.0793 88.2895 87.3269 86.1279 87.3269C83.9662 87.3269 82.2139 89.0793 82.2139 91.2409C82.2139 93.4025 83.9662 95.1549 86.1279 95.1549Z" fill="#121112"/>
<path opacity="0.3" d="M96.2241 106.449C98.3857 106.449 100.138 104.697 100.138 102.535C100.138 100.373 98.3857 98.6211 96.2241 98.6211C94.0624 98.6211 92.3101 100.373 92.3101 102.535C92.3101 104.697 94.0624 106.449 96.2241 106.449Z" fill="#121112"/>
<path opacity="0.3" d="M68.8198 104.807C70.9814 104.807 72.7338 103.055 72.7338 100.893C72.7338 98.7314 70.9814 96.979 68.8198 96.979C66.6581 96.979 64.9058 98.7314 64.9058 100.893C64.9058 103.055 66.6581 104.807 68.8198 104.807Z" fill="#121112"/>
<path d="M86.1279 93.095C87.1519 93.095 87.9819 92.2649 87.9819 91.241C87.9819 90.217 87.1519 89.387 86.1279 89.387C85.104 89.387 84.2739 90.217 84.2739 91.241C84.2739 92.2649 85.104 93.095 86.1279 93.095Z" fill="#121112"/>
<path d="M68.8198 102.748C69.8438 102.748 70.6738 101.918 70.6738 100.894C70.6738 99.8701 69.8438 99.04 68.8198 99.04C67.7959 99.04 66.9658 99.8701 66.9658 100.894C66.9658 101.918 67.7959 102.748 68.8198 102.748Z" fill="#121112"/>
<path d="M96.2241 104.596C97.2481 104.596 98.0781 103.766 98.0781 102.742C98.0781 101.718 97.2481 100.888 96.2241 100.888C95.2002 100.888 94.3701 101.718 94.3701 102.742C94.3701 103.766 95.2002 104.596 96.2241 104.596Z" fill="#121112"/>
<path d="M172.671 72.352C173.695 72.352 174.525 71.522 174.525 70.498C174.525 69.4741 173.695 68.644 172.671 68.644C171.647 68.644 170.817 69.4741 170.817 70.498C170.817 71.522 171.647 72.352 172.671 72.352Z" fill="#121112"/>
<path d="M86.2571 91.385H85.8501V70.167H167.628V70.579H86.2571V91.385Z" fill="#121112"/>
<path d="M172.672 75.86C171.613 75.86 170.577 75.5458 169.696 74.9573C168.815 74.3688 168.129 73.5323 167.724 72.5536C167.318 71.5749 167.212 70.498 167.419 69.4591C167.626 68.4201 168.136 67.4658 168.885 66.7167C169.634 65.9677 170.588 65.4575 171.627 65.2509C172.666 65.0442 173.743 65.1503 174.722 65.5557C175.7 65.9611 176.537 66.6475 177.125 67.5283C177.714 68.4091 178.028 69.4447 178.028 70.504C178.028 71.9245 177.464 73.2868 176.459 74.2912C175.455 75.2957 174.092 75.86 172.672 75.86ZM172.672 65.56C171.694 65.56 170.738 65.8499 169.925 66.3932C169.112 66.9364 168.478 67.7086 168.104 68.612C167.73 69.5154 167.632 70.5094 167.823 71.4685C168.014 72.4275 168.485 73.3085 169.176 73.9999C169.867 74.6913 170.748 75.1622 171.707 75.353C172.666 75.5437 173.661 75.4458 174.564 75.0716C175.467 74.6974 176.239 74.0637 176.783 73.2507C177.326 72.4377 177.616 71.4818 177.616 70.504C177.616 69.8547 177.488 69.2118 177.24 68.612C176.991 68.0121 176.627 67.4671 176.168 67.008C175.709 66.5489 175.164 66.1847 174.564 65.9363C173.964 65.6878 173.321 65.56 172.672 65.56Z" fill="#121112"/>
<path d="M160.311 125.544C161.335 125.544 162.165 124.714 162.165 123.69C162.165 122.666 161.335 121.836 160.311 121.836C159.287 121.836 158.457 122.666 158.457 123.69C158.457 124.714 159.287 125.544 160.311 125.544Z" fill="#121112"/>
<path d="M160.312 128.993C159.253 128.993 158.217 128.679 157.336 128.09C156.456 127.502 155.769 126.665 155.364 125.687C154.958 124.708 154.852 123.631 155.059 122.592C155.266 121.553 155.776 120.599 156.525 119.85C157.274 119.101 158.228 118.591 159.267 118.384C160.306 118.177 161.383 118.283 162.362 118.689C163.34 119.094 164.177 119.781 164.765 120.661C165.354 121.542 165.668 122.578 165.668 123.637C165.668 125.058 165.104 126.42 164.099 127.424C163.095 128.429 161.733 128.993 160.312 128.993ZM160.312 118.693C159.334 118.693 158.378 118.983 157.565 119.526C156.752 120.069 156.119 120.842 155.744 121.745C155.37 122.648 155.272 123.642 155.463 124.602C155.654 125.561 156.125 126.442 156.816 127.133C157.508 127.824 158.388 128.295 159.348 128.486C160.307 128.677 161.301 128.579 162.204 128.205C163.107 127.83 163.88 127.197 164.423 126.384C164.966 125.571 165.256 124.615 165.256 123.637C165.256 122.326 164.735 121.068 163.808 120.141C162.881 119.214 161.623 118.693 160.312 118.693Z" fill="#121112"/>
<path d="M11.3301 80.978C12.354 80.978 13.1841 80.148 13.1841 79.124C13.1841 78.1001 12.354 77.27 11.3301 77.27C10.3061 77.27 9.47607 78.1001 9.47607 79.124C9.47607 80.148 10.3061 80.978 11.3301 80.978Z" fill="#121112"/>
<path d="M11.3291 84.484C10.2698 84.484 9.23431 84.1698 8.35352 83.5813C7.47273 82.9928 6.78625 82.1563 6.38086 81.1776C5.97548 80.1989 5.86939 79.122 6.07606 78.0831C6.28272 77.0441 6.79283 76.0898 7.54188 75.3407C8.29093 74.5917 9.24528 74.0816 10.2842 73.8749C11.3232 73.6682 12.4001 73.7743 13.3788 74.1797C14.3575 74.5851 15.194 75.2715 15.7825 76.1523C16.371 77.0331 16.6852 78.0687 16.6852 79.128C16.6852 79.8313 16.5466 80.5278 16.2774 81.1776C16.0083 81.8274 15.6138 82.4179 15.1164 82.9152C14.6191 83.4126 14.0286 83.8071 13.3788 84.0763C12.729 84.3454 12.0325 84.484 11.3291 84.484ZM11.3291 74.184C10.3513 74.184 9.39544 74.4739 8.5824 75.0172C7.76937 75.5604 7.13568 76.3326 6.76148 77.236C6.38728 78.1394 6.28937 79.1335 6.48014 80.0925C6.6709 81.0516 7.1418 81.9325 7.83323 82.6239C8.52466 83.3153 9.40559 83.7862 10.3646 83.977C11.3237 84.1677 12.3177 84.0698 13.2211 83.6956C14.1245 83.3214 14.8967 82.6877 15.4399 81.8747C15.9832 81.0617 16.2731 80.1058 16.2731 79.128C16.2731 77.8167 15.7523 76.5592 14.8251 75.632C13.8979 74.7049 12.6404 74.184 11.3291 74.184Z" fill="#121112"/>
<path d="M69.0071 100.929H68.5951V80.1209L16.4761 79.2999L16.4821 78.8879L69.0071 79.7149V100.929Z" fill="#121112"/>
<path d="M155.15 123.914H96.0332V102.697H96.4453V123.502H155.152L155.15 123.914Z" fill="#121112"/>
<path d="M184 80.1479H161.341V81.5899H184V80.1479Z" fill="#121112"/>
<path d="M184 84.2561H161.341V85.6981H184V84.2561Z" fill="#121112"/>
<path d="M184 88.364H161.341V89.806H184V88.364Z" fill="#121112"/>
<path d="M171.641 133.319H148.982V134.761H171.641V133.319Z" fill="#121112"/>
<path d="M171.641 137.438H148.982V138.88H171.641V137.438Z" fill="#121112"/>
<path d="M171.641 141.558H148.982V143H171.641V141.558Z" fill="#121112"/>
<path d="M22.659 88.98H0V90.422H22.659V88.98Z" fill="#121112"/>
<path d="M22.659 93.0869H0V94.5289H22.659V93.0869Z" fill="#121112"/>
<path d="M22.659 97.1951H0V98.6371H22.659V97.1951Z" fill="#121112"/>
</svg>
