<svg width="771" height="547" viewBox="0 0 771 547" fill="none" xmlns="http://www.w3.org/2000/svg">
<path d="M583.678 485.406C582.276 485.171 580.94 484.644 579.755 483.86C578.43 483.335 577.225 482.544 576.216 481.537C577.617 481.79 578.956 482.316 580.155 483.085C581.471 483.618 582.668 484.407 583.678 485.406Z" fill="#F26322"/>
<path d="M598.627 493.093C595.897 492.337 593.354 491.019 591.163 489.224C592.558 489.479 593.891 490.004 595.085 490.77C596.403 491.311 597.604 492.1 598.624 493.093L598.627 493.093Z" fill="#F26322"/>
<path d="M613.547 500.829C610.817 500.073 608.274 498.755 606.083 496.96C607.484 497.196 608.82 497.723 610.005 498.506C611.334 499.027 612.54 499.818 613.547 500.829Z" fill="#E8505B"/>
<path d="M655.563 78.9549C655.53 79.2102 655.421 79.4499 655.251 79.6432C655.081 79.8365 654.857 79.9747 654.608 80.0402C654.359 80.1057 654.096 80.0954 653.853 80.0107C653.61 79.926 653.398 79.7707 653.243 79.5647C653.089 79.3587 652.999 79.1113 652.986 78.8542C652.973 78.5971 653.037 78.3419 653.169 78.1212C653.302 77.9005 653.497 77.7244 653.731 77.6153C653.964 77.5063 654.224 77.4693 654.479 77.509C654.814 77.557 655.117 77.7363 655.32 78.0074C655.524 78.2786 655.611 78.6194 655.563 78.9549Z" fill="white"/>
<path d="M621.323 258.773C621.428 258.992 619.752 259.907 617.636 260.81C616.386 261.492 615.008 261.908 613.589 262.031C613.485 261.813 615.161 260.898 617.277 259.995C618.526 259.31 619.905 258.894 621.324 258.773L621.323 258.773Z" fill="#E8505B"/>
<path d="M519.039 380.496C519.228 378.314 519.701 376.166 520.446 374.106C520.899 371.97 521.595 369.893 522.519 367.916C522.442 370.109 522.029 372.278 521.294 374.346C520.815 376.485 520.057 378.551 519.04 380.493L519.039 380.496Z" fill="#F26322"/>
<path d="M513.206 396.228C513.308 394.804 513.697 393.415 514.35 392.146C514.741 390.777 515.409 389.502 516.311 388.401C516.208 389.825 515.819 391.213 515.167 392.483C514.759 393.845 514.093 395.116 513.206 396.228Z" fill="#F26322"/>
<path d="M505.861 411.375C506.104 409.973 506.625 408.633 507.393 407.434C507.919 406.109 508.709 404.904 509.717 403.895C509.482 405.3 508.961 406.641 508.185 407.836C507.653 409.158 506.863 410.362 505.861 411.375Z" fill="#F26322"/>
<path d="M497.118 425.61C497.491 424.236 498.143 422.954 499.032 421.842C500.279 419.897 501.458 418.419 501.677 418.552C501.296 419.937 500.638 421.23 499.741 422.351C499.096 423.604 498.204 424.712 497.118 425.61Z" fill="#F26322"/>
<path d="M487.018 439.007C487.499 437.676 488.251 436.46 489.227 435.434C489.999 434.258 490.998 433.246 492.165 432.459C491.688 433.791 490.935 435.009 489.956 436.031C488.516 437.812 487.144 439.194 487.018 439.007Z" fill="#F26322"/>
<path d="M475.658 451.359C476.293 450.087 477.177 448.955 478.257 448.029C479.871 446.358 481.312 445.07 481.484 445.297C480.857 446.575 479.972 447.709 478.885 448.628C477.268 450.317 475.819 451.536 475.658 451.359Z" fill="#F26322"/>
<path d="M463.19 462.427C463.029 462.25 464.327 460.891 466.091 459.36C467.856 457.829 469.413 456.795 469.575 456.971C469.737 457.147 468.439 458.506 466.658 460.035C464.876 461.564 463.416 462.629 463.19 462.427Z" fill="#F26322"/>
<path d="M449.673 472.415C449.549 472.21 450.976 470.903 452.854 469.643C454.732 468.383 456.402 467.399 456.545 467.587C456.688 467.775 455.271 469.019 453.364 470.359C451.456 471.7 449.812 472.621 449.673 472.415Z" fill="#F26322"/>
<path d="M435.462 481.08C435.338 480.875 436.889 479.77 438.902 478.632C440.915 477.495 442.574 476.712 442.761 476.942C442.948 477.173 441.353 478.236 439.32 479.39C437.287 480.544 435.533 481.294 435.462 481.08Z" fill="#F26322"/>
<path d="M420.298 488.318C420.213 488.085 421.841 487.147 423.998 486.198C425.239 485.497 426.607 485.052 428.023 484.888C428.128 485.108 426.479 486.06 424.326 486.992C423.085 487.699 421.716 488.15 420.298 488.318Z" fill="#F26322"/>
<path d="M404.551 494.064C405.719 493.209 407.048 492.602 408.459 492.279C409.755 491.689 411.159 491.374 412.582 491.354C412.667 491.587 410.944 492.36 408.747 493.115C407.429 493.715 406.002 494.037 404.553 494.061L404.551 494.064Z" fill="#F26322"/>
<path d="M388.331 498.264C389.552 497.543 390.907 497.078 392.313 496.898C393.665 496.442 395.094 496.26 396.517 496.361C395.289 497.085 393.928 497.555 392.515 497.742C391.172 498.205 389.747 498.383 388.331 498.264Z" fill="#F26322"/>
<path d="M371.778 500.889C373.064 500.287 374.458 499.949 375.877 499.896C377.264 499.572 378.703 499.535 380.105 499.788C378.813 500.386 377.414 500.717 375.991 500.762C374.611 501.096 373.176 501.139 371.778 500.889Z" fill="#F26322"/>
<path d="M355.049 501.892C356.387 501.414 357.809 501.212 359.227 501.3C360.639 501.115 362.075 501.216 363.447 501.598C360.699 502.285 357.838 502.385 355.049 501.892Z" fill="#F26322"/>
<path d="M338.301 501.264C341.112 500.849 343.979 501.028 346.717 501.789C345.337 502.136 343.901 502.196 342.497 501.967C341.064 502.03 339.635 501.791 338.301 501.265L338.301 501.264Z" fill="#F26322"/>
<path d="M321.682 499.022C323.093 498.82 324.531 498.899 325.912 499.254C327.329 499.341 328.714 499.712 329.984 500.346C328.579 500.562 327.144 500.484 325.771 500.117C324.348 500.032 322.957 499.66 321.682 499.022Z" fill="#F26322"/>
<path d="M305.354 495.211C308.193 495.387 310.972 496.101 313.544 497.316C312.125 497.407 310.703 497.204 309.366 496.718C307.937 496.507 306.569 495.993 305.353 495.211L305.354 495.211Z" fill="#F26322"/>
<path d="M289.47 489.847C290.891 489.914 292.285 490.265 293.568 490.879C294.945 491.226 296.237 491.85 297.365 492.713C295.941 492.669 294.544 492.324 293.263 491.701C291.888 491.343 290.598 490.713 289.47 489.847Z" fill="#F26322"/>
<path d="M274.253 483.002C277.002 483.676 279.583 484.906 281.837 486.617C279.089 485.943 276.508 484.713 274.253 483.002Z" fill="#F26322"/>
<path d="M259.606 474.676C262.274 475.617 264.721 477.094 266.797 479.016C265.415 478.687 264.115 478.079 262.977 477.229C260.975 476.026 259.473 474.895 259.606 474.676Z" fill="#F26322"/>
<path d="M245.898 464.989C247.248 465.475 248.486 466.23 249.537 467.207C250.757 467.936 251.815 468.908 252.644 470.063C251.297 469.582 250.063 468.827 249.021 467.847C247.146 466.475 245.751 465.189 245.898 464.989Z" fill="#F26322"/>
<path d="M233.202 454.038C234.5 454.623 235.662 455.472 236.615 456.53C238.329 458.083 239.589 459.485 239.444 459.669C238.148 459.077 236.986 458.23 236.027 457.176C234.3 455.622 233.042 454.203 233.202 454.038Z" fill="#F26322"/>
<path d="M221.766 441.909C221.959 441.749 223.306 443.012 224.927 444.722C226.548 446.431 227.606 447.956 227.43 448.119C227.253 448.283 225.885 447.049 224.283 445.308C222.68 443.567 221.59 442.071 221.766 441.909Z" fill="#F26322"/>
<path d="M211.377 428.707C211.584 428.566 212.895 429.96 214.243 431.817C215.591 433.674 216.599 435.279 216.409 435.438C216.218 435.597 214.89 434.184 213.54 432.344C212.19 430.504 211.187 428.849 211.377 428.707Z" fill="#F26322"/>
<path d="M202.292 414.586C202.513 414.465 203.656 415.97 204.852 417.941C205.711 419.074 206.329 420.37 206.668 421.75C206.461 421.891 205.317 420.386 204.108 418.395C203.257 417.258 202.64 415.963 202.292 414.586Z" fill="#F26322"/>
<path d="M194.591 399.813C194.809 399.709 195.802 401.311 196.811 403.408C197.554 404.616 198.044 405.963 198.248 407.367C198.043 407.491 197.052 405.872 196.026 403.789C195.284 402.574 194.796 401.222 194.591 399.813Z" fill="#F26322"/>
<path d="M188.36 384.246C188.594 384.161 189.437 385.86 190.231 388.029C190.871 389.307 191.249 390.701 191.343 392.128C191.11 392.213 190.282 390.516 189.456 388.343C188.813 387.067 188.44 385.672 188.36 384.246Z" fill="#F26322"/>
<path d="M183.664 368.159C184.416 369.364 184.922 370.707 185.154 372.108C185.655 373.439 185.88 374.858 185.815 376.278C185.048 375.077 184.536 373.733 184.308 372.326C183.802 370.998 183.582 369.578 183.664 368.159L183.664 368.159Z" fill="#F26322"/>
<path d="M180.536 351.684C181.165 352.959 181.544 354.344 181.651 355.763C182.02 357.136 182.109 358.569 181.914 359.978C181.256 358.718 180.875 357.332 180.797 355.912C180.415 354.536 180.326 353.094 180.536 351.681L180.536 351.684Z" fill="#F26322"/>
<path d="M179.005 334.996C179.529 336.319 179.777 337.736 179.734 339.159C179.964 340.563 179.91 341.999 179.576 343.382C179.053 342.059 178.811 340.643 178.863 339.221C178.623 337.818 178.671 336.38 179.005 334.996Z" fill="#F26322"/>
<path d="M179.121 318.239C179.499 319.607 179.6 321.035 179.42 322.442C179.498 323.865 179.295 325.289 178.82 326.633C178.435 325.26 178.329 323.825 178.508 322.411C178.416 320.993 178.625 319.571 179.121 318.239Z" fill="#F26322"/>
<path d="M180.844 301.56C181.097 302.963 181.064 304.402 180.748 305.792C180.711 307.214 180.378 308.613 179.77 309.898C179.535 307.074 179.901 304.232 180.844 301.56Z" fill="#F26322"/>
<path d="M184.162 285.126C184.125 287.967 183.493 290.769 182.307 293.351C182.176 291.935 182.345 290.506 182.805 289.16C182.975 287.736 183.437 286.363 184.162 285.126Z" fill="#F26322"/>
<path d="M189.038 269.084C188.729 271.899 187.832 274.617 186.403 277.062C186.708 274.246 187.607 271.527 189.039 269.084L189.038 269.084Z" fill="#F26322"/>
<path d="M195.417 253.562C194.837 256.335 193.687 258.958 192.04 261.264C192.621 258.491 193.771 255.868 195.417 253.562Z" fill="#F26322"/>
<path d="M203.277 238.743C202.978 240.136 202.409 241.457 201.6 242.63C201.027 243.935 200.195 245.111 199.153 246.084C199.445 244.689 200.015 243.367 200.83 242.197C201.398 240.889 202.231 239.713 203.277 238.743Z" fill="#F26322"/>
<path d="M212.526 224.767C212.096 226.123 211.402 227.38 210.483 228.466C209.788 229.706 208.847 230.791 207.718 231.654C208.142 230.295 208.837 229.037 209.761 227.955C211.104 226.042 212.326 224.62 212.526 224.767Z" fill="#F26322"/>
<path d="M223.095 211.657C222.542 212.97 221.731 214.159 220.71 215.153C219.855 216.295 218.823 217.294 217.655 218.113C218.193 216.792 219.006 215.6 220.04 214.616C220.884 213.464 221.917 212.463 223.095 211.657Z" fill="#F26322"/>
<path d="M234.862 199.786C234.186 201.032 233.267 202.131 232.159 203.016C230.503 204.631 229.011 205.793 228.83 205.631C229.511 204.378 230.437 203.274 231.552 202.386C233.21 200.773 234.703 199.594 234.862 199.786Z" fill="#F26322"/>
<path d="M247.728 189.139C247.871 189.329 246.524 190.664 244.705 192.103C242.886 193.542 241.312 194.573 241.15 194.397C240.989 194.22 242.354 192.871 244.173 191.433C245.992 189.995 247.587 188.931 247.728 189.139Z" fill="#F26322"/>
<path d="M261.569 179.621C261.693 179.826 260.231 181.026 258.302 182.278C257.184 183.167 255.901 183.827 254.526 184.217C254.402 184.012 255.865 182.812 257.813 181.545C259.76 180.278 261.446 179.417 261.569 179.621Z" fill="#F26322"/>
<path d="M276.103 171.461C276.207 171.68 274.631 172.728 272.577 173.793C271.39 174.578 270.053 175.109 268.651 175.354C268.545 175.152 270.121 174.104 272.177 173.023C273.364 172.237 274.701 171.706 276.103 171.461Z" fill="#F26322"/>
<path d="M291.461 164.759C290.38 165.663 289.128 166.339 287.78 166.746C286.518 167.386 285.142 167.767 283.731 167.865C283.629 167.63 285.3 166.748 287.414 165.862C288.671 165.215 290.049 164.839 291.461 164.759Z" fill="#F26322"/>
<path d="M307.403 159.552C307.469 159.799 305.719 160.516 303.501 161.184C302.187 161.717 300.781 161.983 299.364 161.968C299.278 161.735 301.028 161.018 303.248 160.35C304.567 159.812 305.979 159.541 307.404 159.552L307.403 159.552Z" fill="#F26322"/>
<path d="M323.76 155.93C322.513 156.605 321.142 157.021 319.73 157.155C318.368 157.579 316.932 157.709 315.515 157.537C316.769 156.86 318.146 156.439 319.564 156.299C320.923 155.889 322.351 155.763 323.76 155.93Z" fill="#F26322"/>
<path d="M340.398 153.894C339.09 154.462 337.678 154.751 336.251 154.744C334.855 155.017 333.419 155.007 332.026 154.717C333.337 154.158 334.748 153.869 336.173 153.867C337.569 153.596 339.005 153.606 340.398 153.894Z" fill="#F26322"/>
<path d="M357.146 153.472C354.379 154.052 351.523 154.054 348.755 153.477C350.105 153.039 351.533 152.89 352.944 153.04C354.36 152.896 355.789 153.042 357.146 153.471L357.146 153.472Z" fill="#F26322"/>
<path d="M373.86 154.69C372.471 154.982 371.037 154.991 369.645 154.715C368.221 154.722 366.81 154.434 365.503 153.868C366.898 153.574 368.338 153.566 369.736 153.845C371.154 153.834 372.56 154.121 373.86 154.69Z" fill="#F26322"/>
<path d="M390.398 157.496C388.984 157.671 387.55 157.546 386.187 157.132C384.767 156.993 383.39 156.571 382.136 155.891C384.97 155.859 387.782 156.405 390.398 157.496Z" fill="#F26322"/>
<path d="M406.593 161.884C405.171 161.903 403.76 161.638 402.442 161.103C401.041 160.838 399.71 160.289 398.529 159.491C399.955 159.472 401.371 159.738 402.693 160.273C404.089 160.536 405.416 161.084 406.59 161.884L406.593 161.884Z" fill="#F26322"/>
<path d="M422.282 167.78C420.863 167.677 419.479 167.283 418.219 166.621C416.851 166.22 415.579 165.547 414.477 164.643C415.896 164.746 417.279 165.14 418.539 165.801C419.903 166.211 421.174 166.883 422.281 167.779L422.282 167.78Z" fill="#F26322"/>
<path d="M437.334 175.179C435.93 174.925 434.592 174.393 433.397 173.614C432.073 173.097 430.872 172.306 429.875 171.292C431.276 171.528 432.612 172.055 433.797 172.839C435.126 173.365 436.33 174.162 437.334 175.179Z" fill="#F26322"/>
<path d="M451.59 183.993C448.954 182.963 446.559 181.4 444.554 179.404C445.929 179.781 447.211 180.438 448.319 181.335C450.262 182.598 451.738 183.793 451.59 183.993Z" fill="#F26322"/>
<path d="M464.942 194.154C463.614 193.636 462.403 192.857 461.381 191.863C459.584 190.418 458.227 189.102 458.408 188.908C459.737 189.393 460.953 190.144 461.98 191.117C463.749 192.642 465.107 193.957 464.942 194.154Z" fill="#F26322"/>
<path d="M477.256 205.543C475.978 204.915 474.845 204.03 473.925 202.944C472.271 201.332 470.971 199.855 471.212 199.705C472.49 200.333 473.624 201.218 474.543 202.304C476.219 203.884 477.415 205.38 477.256 205.543Z" fill="#F26322"/>
<path d="M488.2 218.062C486.994 217.304 485.952 216.312 485.136 215.145C483.691 213.375 482.574 211.806 482.749 211.644C482.925 211.482 484.283 212.797 485.729 214.565C487.175 216.332 488.464 217.913 488.2 218.062Z" fill="#F26322"/>
<path d="M498.152 231.613C497.945 231.753 496.641 230.31 495.383 228.415C494.125 226.52 493.139 224.867 493.346 224.728C493.554 224.588 494.778 226.002 496.097 227.923C497.021 229.004 497.72 230.259 498.152 231.614L498.152 231.613Z" fill="#F26322"/>
<path d="M506.805 245.911C506.583 246.033 505.495 244.484 504.357 242.471C503.54 241.305 502.966 239.987 502.67 238.595C502.891 238.474 503.983 240.005 505.118 242.036C505.926 243.206 506.5 244.522 506.805 245.911Z" fill="#F26322"/>
<path d="M513.976 261.067C513.74 261.17 512.804 259.524 511.872 257.37C511.168 256.138 510.726 254.774 510.574 253.363C510.793 253.259 511.732 254.887 512.661 257.058C513.366 258.292 513.812 259.656 513.973 261.067L513.976 261.067Z" fill="#F26322"/>
<path d="M519.651 276.84C518.821 275.685 518.229 274.376 517.91 272.991C517.331 271.693 517.023 270.291 517.004 268.87C517.237 268.785 518.01 270.508 518.746 272.719C519.329 274.015 519.637 275.418 519.651 276.84Z" fill="#F26322"/>
<path d="M523.796 293.086C522.605 290.516 521.968 287.723 521.928 284.89C523.119 287.461 523.756 290.253 523.796 293.086Z" fill="#F26322"/>
<path d="M526.355 309.654C525.757 308.362 525.426 306.963 525.381 305.54C525.065 304.152 525.028 302.716 525.272 301.313C526.207 303.989 526.575 306.829 526.355 309.654Z" fill="#F26322"/>
<path d="M527.277 326.337C526.817 324.991 526.627 323.567 526.719 322.147C526.532 320.741 526.633 319.311 527.014 317.944C527.489 319.281 527.685 320.702 527.589 322.119C527.783 323.531 527.676 324.968 527.274 326.336L527.277 326.337Z" fill="#F26322"/>
<path d="M526.583 343.18C526.179 340.368 526.37 337.503 527.141 334.769C527.545 337.581 527.355 340.446 526.583 343.18Z" fill="#F26322"/>
<path d="M524.262 359.791C524.071 358.379 524.155 356.943 524.51 355.564C524.598 354.144 524.982 352.758 525.636 351.496C525.831 352.902 525.747 354.332 525.39 355.706C525.307 357.132 524.923 358.525 524.262 359.791Z" fill="#F26322"/>
<path d="M500.994 333.796C501.082 332.111 501.121 330.418 501.126 328.72C501.131 327.022 501.148 325.124 501.095 323.333C501.156 325.04 501.142 326.922 501.126 328.72C501.11 330.518 501.088 332.077 500.994 333.796Z" fill="#F26322"/>
<path d="M484.581 352.664C483.595 349.138 483.779 345.486 483.307 341.912C483.281 340.94 483.051 339.984 482.63 339.107C482.21 338.23 481.61 337.451 480.869 336.821C479.697 336.28 478.49 335.819 477.255 335.44C473.061 333.504 472.743 327.207 468.865 324.722C467.596 324.027 466.227 323.534 464.806 323.26C459.358 321.803 453.876 319.055 451.015 314.191C450.231 312.536 449.288 310.96 448.2 309.486C447.624 308.779 446.831 308.28 445.944 308.068C445.057 307.855 444.125 307.94 443.291 308.31C444.135 310.819 444.945 313.323 445.757 315.81C446.363 318.119 447.403 320.291 448.822 322.211C449.549 323.16 450.53 323.884 451.651 324.299C452.773 324.714 453.988 324.803 455.158 324.556C455.875 324.194 456.676 324.033 457.477 324.092C458.032 324.29 458.495 324.689 458.773 325.209C461.319 328.958 459.539 334.414 456.098 337.41C452.656 340.406 448.072 341.546 443.634 342.623C442.076 343.138 440.408 343.221 438.807 342.864C435.981 341.902 434.889 338.527 434.449 335.567C433.457 329.007 433.503 322.052 430.447 316.211C429.26 314.47 428.318 312.575 427.646 310.577C427.153 308.339 427.69 305.909 426.692 303.869C425.694 301.829 423.015 300.209 423.168 297.842C423.327 297.017 423.721 296.256 424.304 295.651C424.886 295.046 425.632 294.623 426.45 294.433C428.062 293.935 429.785 293.961 431.419 293.552C432.067 293.377 432.816 293.023 432.923 292.378C433.065 291.382 431.762 290.787 431.594 289.834C431.427 288.881 432.559 287.939 433.153 286.991C434.44 284.837 432.369 282.17 430.192 280.91C428.015 279.65 425.335 278.523 424.572 276.16C424.338 275.035 424.246 273.884 424.299 272.736C424.295 271.265 423.852 269.828 423.028 268.61C422.204 267.391 421.036 266.445 419.673 265.892C416.868 265.018 413.316 267.121 413.368 270.068C413.68 271.635 414.172 273.161 414.835 274.614C415.289 276.17 414.801 278.285 413.222 278.55C410.658 278.946 408.93 274.106 406.651 275.357C407.085 278.366 407.486 281.356 407.916 284.396C404.361 285.58 401.005 282.036 400.11 278.47C399.216 274.903 399.713 271.062 398.533 267.59C397.353 264.119 393.271 261.048 390.113 263.001C389.384 267.149 394.651 269.629 396.609 273.348C398.018 276.043 397.186 279.967 394.36 281.139C391.533 282.311 387.889 279.045 389.237 276.342C389.726 275.412 390.674 274.701 390.907 273.668C391.196 272.354 390.25 271.152 389.36 270.16L385.003 265.337C384.18 264.284 383.154 263.406 381.988 262.754C378.885 261.362 375.278 263.487 373.151 266.165C371.024 268.843 369.577 272.09 366.93 274.167C363.109 277.211 356.555 276.494 353.903 272.304C351.251 268.114 353.838 261.506 358.744 260.836C360.605 260.611 362.838 260.981 364.006 259.539C366.064 256.988 361.86 252.746 363.89 250.17C365.427 248.187 368.572 249.637 371.067 249.248C373.562 248.859 375.214 246.656 376.918 244.801C378.623 242.945 381.073 241.208 383.436 242.091C383.303 240.627 383.601 239.157 384.295 237.861C384.481 237.551 384.729 237.282 385.024 237.072C385.319 236.862 385.653 236.715 386.007 236.641C386.361 236.566 386.727 236.565 387.081 236.638C387.435 236.711 387.771 236.856 388.067 237.064C386.589 238.869 387.641 241.813 389.576 243.09C391.645 244.199 393.982 244.709 396.325 244.563C398.673 244.61 401.68 244.177 402.19 241.912C402.189 241.148 402.298 240.388 402.513 239.655C403.917 237.061 408.44 241.553 410.695 239.639C411.989 238.639 411.037 236.419 409.546 235.833C407.982 235.461 406.373 235.311 404.767 235.387C403.109 235.15 401.328 234.099 401.489 232.496C401.651 230.894 403.532 230.045 403.97 228.531C404.662 225.938 400.295 224.621 398.429 226.537C396.563 228.452 396.692 231.455 396.785 234.126C396.878 236.797 396.704 239.904 394.517 241.457C393.526 242.585 391.48 241.616 390.971 240.204C390.634 238.732 390.616 237.205 390.917 235.725C391.05 234.976 390.957 234.204 390.65 233.509C390.342 232.813 389.834 232.225 389.19 231.819C388.155 231.582 387.084 231.55 386.037 231.725C381.883 231.639 379.801 225.955 381.652 222.24C383.504 218.525 387.546 216.529 391.401 215.047C394.227 213.978 397.694 213.085 400.087 214.934C401.202 215.789 401.881 217.071 403.039 217.965C404.923 219.471 407.543 219.388 409.906 219.777C413.642 220.423 417.041 222.339 419.528 225.201C420.453 226.313 421.204 228.049 420.227 229.078C419.251 230.107 416.565 230.061 416.808 231.552C417.471 231.842 418.187 231.989 418.909 231.982C419.632 231.976 420.346 231.817 421.003 231.516C421.66 231.214 422.246 230.777 422.722 230.234C423.199 229.69 423.555 229.052 423.767 228.361C424.4 228.771 424.913 229.339 425.257 230.009C425.601 230.68 425.763 231.429 425.728 232.181C426.602 231.581 427.59 231.168 428.632 230.969C429.673 230.77 430.745 230.788 431.779 231.024C432.812 231.259 433.786 231.706 434.639 232.337C435.491 232.967 436.204 233.767 436.732 234.687C437.119 235.763 437.692 236.762 438.426 237.639C439.269 238.383 440.956 238.305 441.229 237.226C441.302 236.877 441.29 236.515 441.194 236.171C440.867 234.432 440.502 232.837 440.214 231.187C442.554 230.336 444.882 232.532 446.06 234.716C450.504 242.834 455.051 238.982 462.613 241.284C467.726 242.828 469.554 246.51 471.927 251C479.182 264.766 489.67 276.699 496.038 290.906C496.706 292.39 497.303 293.898 497.851 295.4C497.769 295.032 497.703 294.666 497.603 294.295C495.609 285.372 492.772 276.659 489.132 268.271C488.357 266.468 487.565 264.662 486.741 262.967C486.217 261.893 485.681 260.783 485.139 259.723C484.456 258.339 483.717 256.996 482.98 255.638C482.242 254.279 481.797 253.487 481.184 252.451C480.764 251.713 480.311 250.971 479.807 250.238C479.304 249.505 478.84 248.593 478.298 247.77L476.648 245.218C476.46 244.963 476.257 244.719 476.04 244.488C475.474 243.593 474.855 242.709 474.236 241.825C474.192 241.731 474.136 241.644 474.071 241.564L473.55 240.846C473.062 240.115 472.504 239.392 472 238.659C471.134 237.485 470.252 236.308 469.331 235.177C468.41 234.046 467.809 233.267 467.017 232.289C466.226 231.311 465.568 230.591 464.919 229.787C464.271 228.982 463.461 228.153 462.793 227.365C462.125 226.578 461.039 225.422 460.126 224.46C457.613 221.785 454.985 219.203 452.271 216.745C451.598 216.124 450.939 215.522 450.261 214.934C449.584 214.346 448.877 213.72 448.201 213.149C447.524 212.578 446.811 211.97 446.113 211.411C445.414 210.851 444.686 210.258 443.987 209.701C443.288 209.144 442.847 208.792 442.262 208.385C441.981 208.14 441.687 207.912 441.38 207.701C440.142 206.761 438.885 205.837 437.623 204.962C437.01 204.518 436.379 204.071 435.713 203.638C435.047 203.205 434.077 202.523 433.254 201.999C433.14 201.902 433.016 201.816 432.885 201.743C432.14 201.265 431.333 200.759 430.618 200.301L427.375 198.347C426.142 197.629 424.911 196.894 423.649 196.223C422.386 195.551 420.854 194.688 419.422 193.926C417.99 193.163 416.546 192.481 415.086 191.798C413.626 191.116 412.177 190.468 410.676 189.832C407.758 188.567 404.759 187.394 401.73 186.316L401.58 186.295C400.402 185.889 399.24 185.486 398.072 185.132C397.998 185.106 397.919 185.094 397.84 185.099L396.219 184.6C394.048 183.917 391.836 183.278 389.598 182.704C389.321 182.679 389.051 182.606 388.8 182.489C388.149 182.306 387.509 182.169 386.837 182.005C385.365 181.642 383.871 181.313 382.359 180.992C380.847 180.671 379.232 180.359 377.646 180.081C376.06 179.804 374.341 179.519 372.683 179.282C368.268 178.651 363.878 178.209 359.506 177.99C358.484 177.88 357.456 177.829 356.429 177.838L353.207 177.749C352.138 177.749 351.059 177.73 350.006 177.749L346.796 177.814C345.879 177.835 344.943 177.871 344.019 177.925C341.751 178.041 339.51 178.195 337.279 178.4C336.234 178.488 335.203 178.594 334.15 178.732L331.027 179.133C329.302 179.36 327.57 179.638 325.918 179.926L321.778 180.703L321.679 180.688C320.285 180.963 318.923 181.274 317.534 181.603L317.319 181.572C316.057 181.865 314.791 182.19 313.561 182.508C311.997 182.908 310.441 183.366 308.921 183.809C307.401 184.253 306.336 184.592 305.1 184.955L301.041 186.34L300.908 186.321C299.621 186.798 298.333 187.274 297.058 187.786C295.783 188.299 294.455 188.82 293.151 189.413C291.925 189.932 290.733 190.455 289.54 190.997L288.179 191.632C286.891 192.227 285.653 192.829 284.395 193.462C282.847 194.221 281.341 195.041 279.835 195.859C278.329 196.677 277.222 197.314 275.944 198.08C268.552 202.407 261.548 207.366 255.011 212.902C252.704 214.825 250.507 216.801 248.352 218.843C246.529 220.582 244.732 222.356 243.01 224.226C241.471 225.835 239.965 227.483 238.493 229.169C239.965 227.483 241.471 225.835 243.01 224.226C243.392 224.28 243.772 224.233 244.155 224.271C246.273 224.62 248.437 224.579 250.54 224.151C252.318 223.319 254.025 222.345 255.647 221.24C260.128 218.917 266.892 219.342 268.683 214.635C269.302 213.031 269.172 211.216 269.942 209.738C271.507 206.964 275.392 207.133 278.614 207.593C279.958 207.786 281.492 208.191 281.937 209.457C282.044 209.917 282.054 210.393 281.964 210.856C281.875 211.319 281.688 211.758 281.417 212.144C278.67 217.398 274.196 221.543 268.748 223.882C264.326 225.79 258.724 226.954 256.933 231.424C257.26 233.163 260.143 233.373 260.14 235.05C260.119 236.383 258.345 236.826 257.563 237.916C256.429 239.447 258.167 241.864 260.12 242.059C262.102 241.992 264 241.247 265.499 239.949C270.329 236.609 275.432 232.901 277.77 227.561C278.764 225.349 279.379 222.714 281.491 221.318C282.131 220.995 282.836 220.824 283.552 220.819C284.268 220.813 284.976 220.974 285.62 221.287C286.264 221.601 286.826 222.059 287.264 222.626C287.701 223.193 288.002 223.854 288.141 224.556C290.13 223.79 293.13 223.423 293.817 225.486C293.931 226.235 293.959 226.995 293.899 227.751C294.083 230.826 297.991 232.774 297.973 235.853C297.97 239.427 293.23 240.595 289.67 240.628L279.962 240.78C278.548 240.669 277.13 240.908 275.831 241.477C275.187 241.779 274.668 242.294 274.36 242.935C274.052 243.576 273.975 244.304 274.142 244.995C274.533 245.686 275.01 246.323 275.564 246.891C277.825 249.907 274.893 255.01 271.177 254.597C269.899 254.414 268.713 253.821 267.46 253.591C263.73 252.889 260.29 255.767 258.026 258.814C255.763 261.86 253.893 265.455 250.582 267.268C245.233 270.212 237.024 268.174 233.895 273.35C232.899 275.606 232.543 278.092 232.867 280.537C233.145 283.002 232.469 285.481 230.979 287.465C229.319 289.243 225.659 289.16 224.927 286.803C224.728 285.748 224.836 284.658 225.241 283.663C226.301 280.275 227.328 276.882 228.387 273.493C229.156 270.961 229.915 268.139 228.693 265.797C226.991 262.539 222.171 262.137 219.061 264.115C215.951 266.092 214.292 269.632 213.023 273.058C212.037 276.184 210.692 279.186 209.017 282.004C208.101 284.854 207.281 287.746 206.557 290.68C205.805 293.69 205.174 296.681 204.616 299.755C205.024 299.509 205.476 299.184 205.97 298.814C207.665 297.499 211.559 291.467 213.778 295.019C214.039 295.487 214.14 296.028 214.064 296.559C213.988 297.09 213.74 297.581 213.358 297.957C212.378 298.886 210.702 298.882 209.908 299.937C209.114 300.992 209.786 303.037 210.92 304.112C212.196 305.016 213.313 306.126 214.226 307.396C215.531 310.107 213.34 313.587 214.728 316.343C215.847 318.705 218.862 319.289 221.428 319.943L222.306 320.204C223.771 315.164 226.778 311.312 234.043 310.721C244.067 309.902 255.663 319.758 260.076 327.858C265.016 336.915 266.227 348.911 274.917 354.336C281.131 358.223 290.812 358.524 293.146 365.531C295.213 371.805 289.209 377.671 287.498 384.065C286.388 388.277 287.189 392.743 286.906 397.09C286.623 401.437 284.612 406.281 280.434 407.529C278.121 408.198 275.335 407.681 273.442 409.086C269.899 411.595 271.584 418.052 268.042 420.56C266.698 421.265 265.262 421.779 263.776 422.087C256.268 424.621 254.974 434.971 257.205 442.574C257.284 442.852 257.366 443.104 257.461 443.39C277.472 459.598 301.329 470.367 326.722 474.654C352.115 478.941 378.184 476.601 402.407 467.86C407.259 466.109 412.013 464.098 416.647 461.834C423.789 458.393 430.642 454.383 437.142 449.843C441.641 446.711 445.956 443.323 450.067 439.697C452.965 437.198 455.732 434.545 458.408 431.828C459.795 430.417 461.126 429.015 462.406 427.539C477.9 410.488 489.229 390.078 495.506 367.911C496.428 364.658 497.252 361.386 497.98 357.951C497.131 358.728 496.134 359.327 495.05 359.713C493.965 360.099 492.814 360.264 491.664 360.197C488.034 359.543 485.472 356.144 484.581 352.664Z" fill="#F26322"/>
<path d="M331.761 213.059C328.563 214.402 326.523 217.506 323.894 219.746C321.265 221.985 316.923 223.249 314.552 220.718C314.017 220.075 313.618 219.33 313.38 218.529C313.141 217.727 313.068 216.885 313.164 216.054C313.314 213.638 314.238 211.333 315.801 209.484C317.38 207.587 319.562 206.235 320.955 204.193C322.349 202.151 322.595 198.904 320.512 197.558C319.393 196.838 317.864 196.84 316.911 195.906C315.183 194.215 317.04 191.085 319.374 190.557C321.707 190.029 324.093 191.045 326.429 191.566C334.969 193.348 342.133 188.616 349.243 184.844C354.754 181.93 366.136 179.16 371.477 183.727C373.595 185.545 373.95 189.481 371.528 190.849C370.439 191.458 369.067 191.431 368.045 192.049C367.023 192.667 366.421 194.5 365.596 195.757C363.435 198.997 358.594 199.595 356.569 202.956C355.35 204.955 355.387 207.661 353.704 209.339C352.227 210.482 350.403 211.085 348.536 211.045L336.923 212.101C335.164 212.161 333.424 212.485 331.761 213.059Z" fill="#F26322"/>
<path d="M405.865 409.706C401.333 414.797 399.666 421.707 397.666 428.213C395.666 434.719 392.909 441.542 387.153 445.201C381.398 448.861 372.054 447.253 370.117 440.727C369.062 437.18 370.42 433.384 369.997 429.689C369.58 424.892 366.397 420.786 365.283 416.11C364.59 412.054 364.608 407.908 365.337 403.858C367.846 381.566 365.734 357.627 352.942 339.258C351.513 336.865 349.436 334.926 346.95 333.664C345.424 333.044 343.751 332.88 342.133 333.191C340.516 333.502 339.023 334.275 337.835 335.417C336.399 336.909 335.481 338.799 333.794 339.933C330.143 342.417 324.806 339.497 323.188 335.377C321.57 331.258 322.533 326.66 323.523 322.348L327.191 306.316C327.826 303.537 328.577 300.538 330.731 298.655C333.813 295.989 338.56 296.515 342.133 294.563C346.812 292.006 348.244 286.03 351.575 281.854C354.906 277.678 363.518 276.94 364.015 282.257C375.556 264.601 390.992 295.469 402.942 295.025C406.356 294.902 409.917 293.747 413.175 294.707C419.047 296.395 421.197 303.444 422.43 309.427C424.405 319.366 426.44 329.279 428.535 339.167C429.316 342.964 430.409 347.195 433.773 349.086C436.35 350.541 439.645 350.18 442.262 351.59C449.155 355.276 445.236 366.415 438.569 370.641C431.903 374.866 423.285 376.945 419.481 383.719C416.606 388.878 417.35 395.505 414.323 400.557C412.468 404.265 408.675 406.559 405.865 409.706Z" fill="#263238"/>
<path d="M432.553 419.771C430.109 419.76 427.449 418.175 425.408 419.513C424.359 420.473 423.596 421.703 423.201 423.069C422.412 424.885 420.996 426.358 419.212 427.219C418.303 427.618 417.298 427.746 416.317 427.588C415.337 427.43 414.423 426.992 413.685 426.327C412.992 425.624 412.601 424.678 412.596 423.69C412.592 422.703 412.973 421.753 413.66 421.043C414.408 420.548 415.182 420.092 415.978 419.677C419.584 417.136 418.202 411.25 421.124 408.031C422.857 406.122 425.392 404.311 427.261 402.406C428.714 400.916 429.346 399.699 431.598 399.631C441.449 399.003 442.942 419.797 432.553 419.771Z" fill="#263238"/>
<path d="M217.254 347.834C217.397 343.508 219.421 339.45 220.101 335.167C220.525 332.205 220.805 329.052 221.184 326.05C218.661 325.572 216.188 324.86 213.796 323.925C213.273 323.786 212.818 323.462 212.517 323.011C212.329 322.496 212.297 321.936 212.425 321.402C212.718 318.047 209.809 315.356 207.168 313.281C205.847 312.169 204.416 311.197 202.896 310.378L202.749 311.41C201.033 327.606 201.979 343.974 205.549 359.865C207.112 366.936 209.214 373.877 211.834 380.628C212.896 383.531 214.113 386.421 215.423 389.258C217.024 392.783 218.738 396.235 220.635 399.597C222.531 402.959 224.269 406.009 226.31 409.069C229.076 413.329 232.065 417.441 235.264 421.387C238.085 424.914 241.081 428.303 244.252 431.553C239.247 408.627 234.784 385.32 223.571 364.816C220.565 359.481 217.078 353.939 217.254 347.834Z" fill="#E8505B"/>
<path d="M203.859 303.534L203.476 306.214C203.581 305.481 203.714 304.43 203.859 303.534Z" fill="#F26322"/>
<g opacity="0.6">
<path opacity="0.6" d="M251.454 438.581C252.584 439.592 253.729 440.604 254.896 441.586C255.713 442.281 256.52 442.939 257.37 443.638C256.518 442.956 255.711 442.297 254.896 441.586C253.729 440.604 252.584 439.592 251.454 438.581Z" fill="#F26322"/>
</g>
<path d="M438.88 370.72C445.451 366.565 449.466 355.355 442.572 351.67C439.956 350.259 436.661 350.62 434.084 349.165C430.72 347.275 429.627 343.043 428.845 339.246C426.869 329.319 424.834 319.405 422.74 309.506C421.507 303.523 419.358 296.474 413.486 294.786C410.227 293.827 406.665 294.982 403.252 295.104C391.302 295.551 375.833 264.676 364.325 282.337C363.829 277.019 355.2 277.754 351.885 281.933C348.571 286.111 347.122 292.085 342.444 294.643C338.869 296.593 334.123 296.068 331.042 298.734C328.888 300.617 328.136 303.617 327.501 306.395L323.833 322.427C322.844 326.734 321.877 331.351 323.498 335.454C325.12 339.557 330.455 342.493 334.104 340.01C335.784 338.858 336.694 336.985 338.146 335.494C339.333 334.352 340.826 333.579 342.444 333.268C344.062 332.956 345.735 333.121 347.261 333.741C349.746 335.002 351.824 336.942 353.253 339.335C366.035 357.77 368.147 381.708 365.648 403.935C364.919 407.985 364.9 412.131 365.593 416.187C366.706 420.863 369.89 424.969 370.308 429.767C370.647 433.449 369.24 437.238 370.427 440.804C372.363 447.33 381.73 448.923 387.464 445.279C393.198 441.634 395.993 434.799 397.976 428.291C399.96 421.782 401.594 414.867 406.175 409.783C408.986 406.636 412.777 404.342 414.944 400.713C417.976 395.662 417.226 389.035 420.103 383.876C423.603 376.974 432.299 374.941 438.88 370.72Z" fill="#E8505B"/>
<g opacity="0.6">
<path opacity="0.6" d="M204.457 300.062C204.401 300.331 204.362 300.604 204.34 300.878C204.362 300.604 204.401 300.331 204.457 300.062Z" fill="#F26322"/>
</g>
<g opacity="0.6">
<path opacity="0.6" d="M203.148 308.382L202.836 310.565C202.958 309.832 203.06 309.117 203.148 308.382Z" fill="#F26322"/>
</g>
<path d="M222.248 320.521L221.369 320.259C218.796 319.602 215.774 319.013 214.651 316.649C213.346 313.899 215.543 310.409 214.152 307.679C213.237 306.406 212.116 305.293 210.836 304.387C209.7 303.308 208.861 301.455 209.822 300.2C210.783 298.945 212.299 299.145 213.281 298.216C213.664 297.839 213.913 297.347 213.989 296.814C214.065 296.282 213.964 295.74 213.702 295.271C211.478 291.709 207.569 297.79 205.874 299.075C205.375 299.449 204.925 299.772 204.517 300.019C204.461 300.288 204.422 300.56 204.4 300.834L203.01 310.554C204.529 311.373 205.96 312.346 207.281 313.457C209.924 315.533 212.837 318.208 212.539 321.578C212.41 322.112 212.442 322.672 212.631 323.188C212.931 323.638 213.386 323.963 213.909 324.101C216.301 325.036 218.774 325.748 221.297 326.226" fill="#F26322"/>
<path d="M221.21 325.87C220.782 328.865 220.601 332.031 220.127 334.986C219.514 339.279 217.42 343.329 217.28 347.654C217.103 353.758 220.589 359.3 223.541 364.663C234.754 385.166 239.215 408.473 244.222 431.4C245.549 432.812 246.917 434.163 248.308 435.483C249.413 436.541 250.532 437.499 251.647 438.609C252.762 439.72 253.922 440.633 255.089 441.615C255.906 442.309 256.712 442.967 257.563 443.666C257.468 443.381 257.385 443.131 257.307 442.848C255.002 435.214 256.366 424.85 263.896 422.311C265.382 421.995 266.816 421.474 268.159 420.764C271.711 418.249 270.021 411.776 273.573 409.261C275.557 407.847 278.302 408.375 280.589 407.7C284.776 406.448 286.759 401.603 287.074 397.234C287.389 392.864 286.556 388.398 287.668 384.176C289.386 377.765 295.402 371.885 293.33 365.595C290.94 358.562 281.32 358.273 275.052 354.371C266.271 348.922 265.053 336.895 260.169 327.825C255.744 319.703 244.066 309.815 234.066 310.641C226.773 311.296 223.767 315.094 222.298 320.148" fill="#E8505B"/>
<path d="M218.919 264.478C222.038 262.496 226.871 262.898 228.577 266.165C229.804 268.513 229.044 271.326 228.275 273.882C227.229 277.281 226.199 280.683 225.12 284.077C224.714 285.074 224.605 286.167 224.805 287.225C225.536 289.587 229.21 289.672 230.874 287.889C232.368 285.9 233.045 283.416 232.767 280.944C232.441 278.493 232.798 276 233.797 273.739C236.946 268.467 245.177 270.51 250.525 267.641C253.841 265.823 255.732 262.222 257.986 259.165C260.24 256.109 263.714 253.192 267.446 253.926C268.711 254.107 269.885 254.802 271.173 254.935C274.901 255.35 277.84 250.234 275.574 247.21C275.019 246.64 274.539 246.001 274.148 245.308C273.98 244.615 274.057 243.886 274.366 243.243C274.674 242.6 275.195 242.083 275.841 241.781C277.143 241.211 278.565 240.971 279.982 241.082L289.714 240.928C293.281 240.895 298.036 239.724 298.039 236.142C298.056 233.054 294.141 231.102 293.954 228.018C294.014 227.261 293.986 226.499 293.871 225.748C293.182 223.68 290.175 224.048 288.18 224.816C288.04 224.112 287.739 223.449 287.3 222.881C286.862 222.312 286.297 221.853 285.652 221.539C285.006 221.225 284.297 221.064 283.579 221.069C282.861 221.075 282.154 221.246 281.513 221.57C279.409 222.866 278.786 225.561 277.783 227.829C275.428 233.248 270.314 236.95 265.478 240.248C263.975 241.55 262.07 242.296 260.082 242.363C258.123 242.172 256.374 239.795 257.517 238.21C258.301 237.116 260.08 236.674 260.101 235.336C260.106 233.639 257.225 233.362 256.885 231.7C258.684 227.22 264.298 226.053 268.732 224.14C274.195 221.796 278.681 217.64 281.436 212.373C281.707 211.986 281.894 211.546 281.984 211.082C282.073 210.618 282.064 210.14 281.957 209.68C281.51 208.41 279.969 208.003 278.624 207.811C275.482 207.361 271.501 207.165 269.928 209.963C269.087 211.456 269.285 213.267 268.665 214.876C266.868 219.608 260.085 219.185 255.594 221.497C253.968 222.606 252.255 223.582 250.473 224.417C248.364 224.846 246.195 224.887 244.072 224.537C243.692 224.463 243.304 224.448 242.92 224.491C241.377 226.104 239.867 227.756 238.391 229.447C236.927 231.14 235.507 232.872 234.118 234.626C227.5 242.944 221.805 251.956 217.132 261.504C215.465 264.854 213.934 268.28 212.537 271.782C211.141 275.283 209.873 278.849 208.733 282.478C210.412 279.653 211.76 276.644 212.749 273.51C214.138 270.009 215.833 266.468 218.919 264.478Z" fill="#E8505B"/>
<path d="M353.609 209.306C355.287 207.661 355.25 204.956 356.474 202.924C358.496 199.596 363.369 199.002 365.501 195.725C366.326 194.467 366.713 192.858 367.95 192.016C369.188 191.174 370.356 191.341 371.433 190.817C373.853 189.465 373.5 185.508 371.383 183.695C366.091 179.135 354.759 181.912 349.149 184.811C342.005 188.578 334.875 193.315 326.334 191.533C323.992 191.045 321.608 190.025 319.279 190.524C316.949 191.023 315.07 194.185 316.815 195.877C317.768 196.815 319.298 196.81 320.417 197.53C322.499 198.881 322.254 202.123 320.86 204.165C319.466 206.206 317.285 207.558 315.706 209.455C314.143 211.305 313.218 213.609 313.068 216.026C312.972 216.857 313.045 217.699 313.284 218.5C313.522 219.302 313.921 220.047 314.455 220.69C316.827 223.22 321.166 221.972 323.798 219.716C326.43 217.461 328.467 214.373 331.665 213.03C333.296 212.46 335.002 212.132 336.728 212.057L348.341 211C350.24 211.068 352.104 210.469 353.609 209.309L353.609 209.306Z" fill="#F26322"/>
<g opacity="0.6">
<path opacity="0.6" d="M499.873 346.511C500.177 344.381 500.482 342.251 500.599 340.128C500.415 342.24 500.177 344.381 499.873 346.511L499.58 348.558C499.104 351.886 498.529 355.081 497.881 358.3C498.54 354.998 499.109 351.853 499.58 348.558C499.727 347.883 499.825 347.199 499.873 346.511Z" fill="#F26322"/>
</g>
<g opacity="0.6">
<path opacity="0.6" d="M497.697 295.473C498.144 297.456 498.54 299.431 498.883 301.433C498.541 299.431 498.144 297.456 497.697 295.473Z" fill="#F26322"/>
</g>
<path d="M499.846 346.695C500.151 344.565 500.455 342.435 500.572 340.312C500.689 338.189 500.891 336.061 500.975 333.934C501.062 332.248 501.101 330.556 501.106 328.858C501.111 327.16 501.128 325.262 501.075 323.471C500.941 318.149 500.515 312.839 499.801 307.565C499.53 305.539 499.218 303.541 498.863 301.538C498.507 299.535 498.124 297.561 497.677 295.578C497.128 294.075 496.529 292.564 495.859 291.073C489.407 276.821 478.956 264.883 471.677 251.072C469.298 246.572 467.466 242.88 462.338 241.331C454.755 239.025 450.228 242.895 445.74 234.747C444.558 232.558 442.225 230.356 439.878 231.209C440.206 232.953 440.574 234.535 440.861 236.206C440.959 236.55 440.971 236.914 440.897 237.264C440.624 238.345 438.931 238.426 438.087 237.677C437.351 236.798 436.776 235.796 436.388 234.717C435.858 233.795 435.144 232.993 434.289 232.361C433.434 231.729 432.457 231.281 431.421 231.045C430.384 230.809 429.31 230.79 428.265 230.99C427.221 231.19 426.23 231.604 425.353 232.206C425.389 231.451 425.226 230.7 424.882 230.029C424.537 229.357 424.022 228.787 423.388 228.376C423.175 229.068 422.817 229.708 422.339 230.252C421.861 230.797 421.274 231.234 420.615 231.536C419.956 231.838 419.241 231.997 418.517 232.003C417.792 232.009 417.074 231.862 416.411 231.572C416.166 230.077 418.762 230.21 419.839 229.09C420.915 227.97 420.065 226.321 419.138 225.203C416.645 222.334 413.238 220.414 409.493 219.766C407.114 219.425 404.444 219.451 402.605 217.949C401.509 217.061 400.827 215.775 399.644 214.91C397.243 213.052 393.77 213.951 390.933 215.023C387.054 216.505 382.984 218.487 381.157 222.234C379.331 225.98 381.389 231.657 385.554 231.744C386.604 231.568 387.678 231.601 388.716 231.839C389.361 232.246 389.871 232.835 390.179 233.533C390.488 234.231 390.581 235.004 390.447 235.755C390.145 237.239 390.164 238.77 390.502 240.246C391.012 241.661 393.064 242.633 394.058 241.502C396.25 239.945 396.436 236.748 396.331 234.152C396.227 231.557 396.109 228.466 397.98 226.543C399.851 224.62 404.23 225.943 403.535 228.543C403.13 230.064 401.205 230.943 401.048 232.517C400.89 234.091 402.728 235.252 404.335 235.416C405.946 235.34 407.559 235.49 409.128 235.863C410.656 236.455 411.612 238.68 410.28 239.68C408.019 241.598 403.496 237.012 402.076 239.695C401.86 240.43 401.751 241.193 401.752 241.959C401.241 244.229 398.224 244.661 395.871 244.616C393.521 244.762 391.178 244.25 389.103 243.138C387.163 241.859 386.109 238.906 387.589 237.098C387.293 236.889 386.956 236.743 386.601 236.671C386.245 236.598 385.879 236.599 385.524 236.674C385.169 236.749 384.833 236.896 384.538 237.107C384.242 237.318 383.993 237.587 383.807 237.898C383.111 239.197 382.811 240.672 382.945 242.14C380.577 241.258 378.1 243.009 376.41 244.858C374.721 246.706 373.027 248.925 370.543 249.316C368.059 249.707 364.888 248.252 363.347 250.239C361.281 252.814 365.512 257.069 363.464 259.63C362.289 261.075 360.05 260.704 358.184 260.93C353.265 261.602 350.622 268.338 353.333 272.428C356.044 276.518 362.503 277.288 366.395 274.296C369.12 272.224 370.556 268.948 372.637 266.274C374.717 263.6 378.419 261.463 381.499 262.855C382.67 263.508 383.699 264.388 384.525 265.444L388.682 270.097C389.576 271.091 390.524 272.296 390.234 273.615C390.085 274.662 389.051 275.364 388.56 276.296C387.171 279.002 390.896 282.285 393.696 281.106C396.496 279.927 397.367 275.993 395.951 273.295C393.982 269.618 388.706 267.08 389.437 262.921C392.597 261.012 396.692 264.077 397.88 267.525C399.067 270.973 398.527 274.869 399.462 278.432C400.396 281.995 403.811 285.54 407.289 284.374C406.859 281.324 406.456 278.328 406.021 275.311C408.306 274.059 410.041 278.909 412.61 278.512C414.194 278.246 414.65 276.12 414.228 274.566C413.563 273.109 413.07 271.58 412.757 270.009C412.7 267.08 416.261 264.975 419.078 265.819C420.445 266.373 421.617 267.321 422.443 268.543C423.269 269.765 423.713 271.205 423.718 272.68C423.665 273.832 423.757 274.986 423.991 276.116C424.751 278.516 427.449 279.599 429.626 280.878C431.803 282.158 433.876 284.882 432.592 286.974C431.997 287.925 430.794 288.737 431.026 289.823C431.258 290.91 432.502 291.376 432.359 292.375C432.267 293.023 431.504 293.373 430.85 293.551C429.211 293.962 427.401 293.924 425.867 294.435C425.046 294.625 424.299 295.049 423.715 295.656C423.131 296.263 422.736 297.025 422.576 297.852C422.424 300.225 425.074 301.758 426.11 303.893C427.146 306.028 426.573 308.374 427.067 310.621C427.74 312.624 428.685 314.525 429.875 316.27C433.01 322.135 432.964 329.108 433.892 335.675C434.334 338.642 435.429 342.025 438.263 342.991C439.869 343.349 441.541 343.266 443.103 342.75C447.551 341.688 452.168 340.514 455.601 337.524C459.034 334.534 460.832 329.085 458.284 325.292C458.004 324.77 457.541 324.371 456.984 324.171C456.181 324.114 455.377 324.276 454.659 324.64C453.486 324.888 452.266 324.798 451.142 324.382C450.018 323.966 449.034 323.24 448.304 322.289C446.882 320.364 445.839 318.187 445.231 315.872C444.417 313.378 443.604 310.867 442.758 308.353C443.595 307.982 444.53 307.896 445.42 308.109C446.311 308.322 447.106 308.823 447.683 309.533C448.775 311.011 449.72 312.59 450.507 314.25C453.373 319.125 458.874 321.882 464.336 323.342C465.76 323.617 467.131 324.111 468.403 324.807C472.292 327.298 472.611 333.61 476.817 335.553C478.054 335.932 479.265 336.394 480.439 336.937C481.183 337.568 481.785 338.349 482.206 339.228C482.627 340.107 482.859 341.066 482.885 342.04C483.358 345.623 483.169 349.315 484.162 352.823C485.154 356.331 487.624 359.72 491.195 360.282C493.469 360.544 495.754 359.894 497.549 358.474C498.208 355.172 498.776 352.027 499.248 348.732C499.637 348.124 499.844 347.417 499.846 346.695Z" fill="#E8505B"/>
<path d="M431.495 399.533C429.22 399.653 428.611 400.819 427.158 402.309C425.289 404.216 422.755 406.027 421.021 407.935C418.099 411.15 419.482 417.036 415.875 419.58C415.079 419.995 414.305 420.451 413.557 420.947C412.87 421.656 412.489 422.606 412.493 423.594C412.498 424.581 412.889 425.528 413.582 426.231C414.32 426.895 415.234 427.333 416.214 427.491C417.194 427.65 418.2 427.522 419.109 427.123C420.893 426.262 422.309 424.789 423.098 422.972C423.493 421.607 424.256 420.376 425.305 419.416C427.357 418.012 430.006 419.664 432.45 419.674C442.939 419.796 441.45 399.006 431.495 399.533Z" fill="#E8505B"/>
<path d="M438.879 370.721C445.451 366.566 449.465 355.356 442.572 351.67C439.955 350.26 436.66 350.621 434.083 349.165C430.72 347.275 429.626 343.044 428.845 339.247C426.868 329.319 424.833 319.406 422.74 309.507C421.507 303.524 419.357 296.475 413.485 294.786C410.227 293.828 406.665 294.982 403.252 295.104C391.301 295.552 375.833 264.676 364.325 282.337C363.828 277.02 355.199 277.755 351.885 281.934C348.57 286.112 347.122 292.086 342.443 294.643C338.868 296.594 334.123 296.069 331.041 298.735C328.887 300.617 328.136 303.618 327.5 306.396L323.832 322.428C322.843 326.735 321.877 331.351 323.498 335.455C325.119 339.558 330.455 342.494 334.104 340.011C335.783 338.858 336.693 336.985 338.146 335.494C339.333 334.353 340.826 333.579 342.443 333.268C344.061 332.957 345.734 333.122 347.26 333.742C349.746 335.003 351.823 336.943 353.252 339.336C366.034 357.77 368.146 381.709 365.647 403.936C364.918 407.985 364.9 412.131 365.593 416.188C366.706 420.864 369.889 424.969 370.308 429.767C370.647 433.449 369.239 437.239 370.427 440.805C372.363 447.331 381.729 448.924 387.464 445.28C393.198 441.635 395.992 434.8 397.976 428.291C399.96 421.783 401.593 414.868 406.175 409.784C408.986 406.637 412.777 404.343 414.944 400.714C417.975 395.663 417.225 389.035 420.102 383.877C423.602 376.975 432.299 374.941 438.879 370.721Z" fill="#AA3D0B"/>
<path d="M244.218 431.434C245.545 432.846 246.913 434.197 248.304 435.516C249.409 436.574 250.528 437.532 251.643 438.643C252.758 439.754 253.918 440.666 255.085 441.648C255.902 442.342 256.708 443.001 257.559 443.7C257.464 443.419 257.381 443.165 257.303 442.882C254.998 435.248 256.361 424.884 263.892 422.344C265.381 422.018 266.817 421.487 268.159 420.764C271.711 418.249 270.022 411.776 273.574 409.262C275.558 407.847 278.303 408.375 280.589 407.701C284.777 406.449 286.76 401.604 287.075 397.235C287.389 392.865 286.557 388.399 287.668 384.177C289.386 377.767 295.403 371.886 293.331 365.596C290.941 358.563 281.32 358.274 275.052 354.372C266.272 348.923 265.054 336.896 260.17 327.826C255.744 319.704 244.067 309.816 234.066 310.642C226.774 311.297 223.767 315.096 222.298 320.149L221.419 319.887C218.847 319.231 215.824 318.642 214.701 316.277C213.397 313.527 215.594 310.038 214.202 307.308C213.287 306.034 212.166 304.922 210.887 304.015C209.75 302.936 208.911 301.084 209.872 299.829C210.833 298.574 212.35 298.774 213.332 297.844C213.715 297.467 213.963 296.975 214.039 296.443C214.115 295.911 214.015 295.369 213.753 294.899C211.528 291.338 207.619 297.418 205.924 298.704C205.425 299.078 204.975 299.4 204.567 299.647C204.511 299.916 204.472 300.189 204.45 300.463L202.913 311.212C201.15 327.405 202.049 343.778 205.575 359.681C207.138 366.752 209.239 373.693 211.86 380.444C212.923 383.347 214.138 386.237 215.448 389.074C217.05 392.599 218.764 396.051 220.66 399.413C222.557 402.775 224.296 405.812 226.336 408.885C229.102 413.145 232.09 417.257 235.289 421.203C238.11 424.731 241.107 428.119 244.278 431.369" fill="#AA3D0B"/>
<path d="M218.919 264.478C222.038 262.496 226.871 262.898 228.577 266.165C229.804 268.513 229.044 271.326 228.275 273.882C227.229 277.281 226.199 280.683 225.12 284.077C224.714 285.074 224.605 286.167 224.805 287.225C225.536 289.587 229.21 289.672 230.874 287.889C232.368 285.9 233.045 283.416 232.767 280.944C232.441 278.493 232.798 276 233.797 273.739C236.946 268.467 245.177 270.51 250.525 267.641C253.841 265.823 255.732 262.222 257.986 259.165C260.24 256.109 263.714 253.192 267.446 253.926C268.711 254.107 269.885 254.802 271.173 254.935C274.901 255.35 277.84 250.234 275.574 247.21C275.019 246.64 274.539 246.001 274.148 245.308C273.98 244.615 274.057 243.886 274.366 243.243C274.674 242.6 275.195 242.083 275.841 241.781C277.143 241.211 278.565 240.971 279.982 241.082L289.714 240.928C293.281 240.895 298.036 239.724 298.039 236.142C298.056 233.054 294.141 231.102 293.954 228.018C294.014 227.261 293.986 226.499 293.871 225.748C293.182 223.68 290.175 224.048 288.18 224.816C288.04 224.112 287.739 223.449 287.3 222.881C286.862 222.312 286.297 221.853 285.652 221.539C285.006 221.225 284.297 221.064 283.579 221.069C282.861 221.075 282.154 221.246 281.513 221.57C279.409 222.866 278.786 225.561 277.783 227.829C275.428 233.248 270.314 236.95 265.478 240.248C263.975 241.55 262.07 242.296 260.082 242.363C258.123 242.172 256.374 239.795 257.517 238.21C258.301 237.116 260.08 236.674 260.101 235.336C260.106 233.639 257.225 233.362 256.885 231.7C258.684 227.22 264.298 226.053 268.732 224.14C274.195 221.796 278.681 217.64 281.436 212.373C281.707 211.986 281.894 211.546 281.984 211.082C282.073 210.618 282.064 210.14 281.957 209.68C281.51 208.41 279.969 208.003 278.624 207.811C275.482 207.361 271.501 207.165 269.928 209.963C269.087 211.456 269.285 213.267 268.665 214.876C266.868 219.608 260.085 219.185 255.594 221.497C253.968 222.606 252.255 223.582 250.473 224.417C248.364 224.846 246.195 224.887 244.072 224.537C243.692 224.463 243.304 224.448 242.92 224.491C241.377 226.104 239.867 227.756 238.391 229.447C236.927 231.14 235.507 232.872 234.118 234.626C227.5 242.944 221.805 251.956 217.132 261.504C215.465 264.854 213.934 268.28 212.537 271.782C211.141 275.283 209.873 278.849 208.733 282.478C210.412 279.653 211.76 276.644 212.749 273.51C214.138 270.009 215.833 266.468 218.919 264.478Z" fill="#AA3D0B"/>
<path d="M353.609 209.306C355.287 207.661 355.25 204.956 356.474 202.924C358.496 199.596 363.369 199.002 365.501 195.725C366.326 194.467 366.713 192.858 367.95 192.016C369.188 191.174 370.356 191.341 371.433 190.817C373.853 189.465 373.5 185.508 371.383 183.695C366.091 179.135 354.759 181.912 349.149 184.811C342.005 188.578 334.875 193.315 326.334 191.533C323.992 191.045 321.608 190.025 319.279 190.524C316.949 191.023 315.07 194.185 316.815 195.877C317.768 196.815 319.298 196.81 320.417 197.53C322.499 198.881 322.254 202.123 320.86 204.165C319.466 206.206 317.285 207.558 315.706 209.455C314.143 211.305 313.218 213.609 313.068 216.026C312.972 216.857 313.045 217.699 313.284 218.5C313.522 219.302 313.921 220.047 314.455 220.69C316.827 223.22 321.166 221.972 323.798 219.716C326.43 217.461 328.467 214.373 331.665 213.03C333.296 212.46 335.002 212.132 336.728 212.057L348.341 211C350.24 211.068 352.104 210.469 353.609 209.309L353.609 209.306Z" fill="#AA3D0B"/>
<path d="M499.847 346.695C500.151 344.565 500.456 342.435 500.572 340.312C500.689 338.189 500.892 336.061 500.975 333.934C501.063 332.248 501.102 330.556 501.107 328.858C501.112 327.16 501.129 325.262 501.076 323.471C500.941 318.149 500.516 312.839 499.801 307.565C499.531 305.539 499.219 303.541 498.863 301.538C498.507 299.535 498.124 297.561 497.677 295.578C497.128 294.075 496.529 292.564 495.86 291.073C489.408 276.821 478.957 264.883 471.678 251.072C469.299 246.572 467.466 242.88 462.339 241.331C454.756 239.025 450.228 242.895 445.74 234.747C444.558 232.558 442.225 230.356 439.879 231.209C440.207 232.953 440.575 234.535 440.862 236.206C440.959 236.55 440.971 236.914 440.898 237.264C440.625 238.345 438.931 238.426 438.088 237.677C437.352 236.798 436.777 235.796 436.388 234.717C435.859 233.795 435.144 232.993 434.289 232.361C433.434 231.729 432.458 231.281 431.421 231.045C430.384 230.809 429.31 230.79 428.266 230.99C427.222 231.19 426.23 231.604 425.354 232.206C425.39 231.451 425.227 230.7 424.882 230.029C424.537 229.357 424.022 228.787 423.389 228.376C423.175 229.068 422.818 229.708 422.34 230.252C421.862 230.797 421.274 231.234 420.615 231.536C419.957 231.838 419.242 231.997 418.517 232.003C417.793 232.009 417.075 231.862 416.411 231.572C416.166 230.077 418.762 230.21 419.839 229.09C420.916 227.97 420.065 226.321 419.138 225.203C416.645 222.334 413.239 220.414 409.494 219.766C407.114 219.425 404.444 219.451 402.605 217.949C401.51 217.061 400.827 215.775 399.644 214.91C397.244 213.052 393.77 213.951 390.934 215.023C387.055 216.505 382.984 218.487 381.158 222.234C379.331 225.98 381.39 231.657 385.554 231.744C386.604 231.568 387.678 231.601 388.716 231.839C389.362 232.246 389.871 232.835 390.18 233.533C390.488 234.231 390.582 235.004 390.448 235.755C390.146 237.239 390.164 238.77 390.502 240.246C391.013 241.661 393.065 242.633 394.059 241.502C396.251 239.945 396.436 236.748 396.332 234.152C396.227 231.557 396.109 228.466 397.98 226.543C399.852 224.62 404.23 225.943 403.535 228.543C403.131 230.064 401.205 230.943 401.048 232.517C400.891 234.091 402.729 235.252 404.336 235.416C405.946 235.34 407.559 235.49 409.128 235.863C410.657 236.455 411.612 238.68 410.28 239.68C408.019 241.598 403.496 237.012 402.077 239.695C401.861 240.43 401.752 241.193 401.753 241.959C401.241 244.229 398.225 244.661 395.871 244.616C393.522 244.762 391.178 244.25 389.104 243.138C387.164 241.859 386.109 238.906 387.59 237.098C387.293 236.889 386.957 236.743 386.601 236.671C386.246 236.598 385.879 236.599 385.524 236.674C385.169 236.749 384.833 236.896 384.538 237.107C384.243 237.318 383.994 237.587 383.807 237.898C383.111 239.197 382.812 240.672 382.946 242.14C380.578 241.258 378.1 243.009 376.411 244.858C374.721 246.706 373.028 248.925 370.543 249.316C368.059 249.707 364.889 248.252 363.348 250.239C361.282 252.814 365.513 257.069 363.465 259.63C362.29 261.075 360.051 260.704 358.184 260.93C353.266 261.602 350.622 268.338 353.333 272.428C356.044 276.518 362.503 277.288 366.396 274.296C369.12 272.224 370.557 268.948 372.637 266.274C374.717 263.6 378.42 261.463 381.499 262.855C382.67 263.508 383.699 264.388 384.526 265.444L388.683 270.097C389.577 271.091 390.525 272.296 390.235 273.615C390.085 274.662 389.051 275.364 388.561 276.296C387.172 279.002 390.897 282.285 393.697 281.106C396.497 279.927 397.367 275.993 395.951 273.295C393.983 269.618 388.706 267.08 389.437 262.921C392.597 261.012 396.692 264.077 397.88 267.525C399.068 270.973 398.528 274.869 399.462 278.432C400.396 281.995 403.811 285.54 407.289 284.374C406.86 281.324 406.456 278.328 406.022 275.311C408.307 274.059 410.041 278.909 412.611 278.512C414.194 278.246 414.651 276.12 414.228 274.566C413.564 273.109 413.07 271.58 412.757 270.009C412.7 267.08 416.262 264.975 419.079 265.819C420.446 266.373 421.617 267.321 422.443 268.543C423.27 269.765 423.713 271.205 423.718 272.68C423.665 273.832 423.757 274.986 423.991 276.116C424.752 278.516 427.45 279.599 429.627 280.878C431.803 282.158 433.877 284.882 432.592 286.974C431.998 287.925 430.795 288.737 431.027 289.823C431.259 290.91 432.503 291.376 432.36 292.375C432.267 293.023 431.504 293.373 430.85 293.551C429.212 293.962 427.401 293.924 425.867 294.435C425.047 294.625 424.3 295.049 423.716 295.656C423.132 296.263 422.736 297.025 422.577 297.852C422.425 300.225 425.074 301.758 426.111 303.893C427.147 306.028 426.574 308.374 427.067 310.621C427.741 312.624 428.686 314.525 429.876 316.27C433.011 322.135 432.964 329.108 433.893 335.675C434.334 338.642 435.43 342.025 438.264 342.991C439.869 343.349 441.542 343.266 443.104 342.75C447.552 341.688 452.168 340.514 455.601 337.524C459.034 334.534 460.833 329.085 458.284 325.292C458.005 324.77 457.542 324.371 456.984 324.171C456.181 324.114 455.377 324.276 454.659 324.64C453.486 324.888 452.267 324.798 451.142 324.382C450.018 323.966 449.034 323.24 448.305 322.289C446.882 320.364 445.839 318.187 445.232 315.872C444.417 313.378 443.604 310.867 442.758 308.353C443.595 307.982 444.531 307.896 445.421 308.109C446.311 308.322 447.106 308.823 447.684 309.533C448.775 311.011 449.721 312.59 450.507 314.25C453.373 319.125 458.874 321.882 464.337 323.342C465.76 323.617 467.132 324.111 468.403 324.807C472.292 327.298 472.612 333.61 476.817 335.553C478.055 335.932 479.265 336.394 480.44 336.937C481.183 337.568 481.785 338.349 482.206 339.228C482.628 340.107 482.859 341.066 482.886 342.04C483.358 345.623 483.17 349.315 484.162 352.823C485.154 356.331 487.624 359.72 491.195 360.282C493.469 360.544 495.754 359.894 497.549 358.474C498.208 355.172 498.777 352.027 499.248 348.732C499.637 348.124 499.845 347.417 499.847 346.695Z" fill="#AA3D0B"/>
<path d="M431.495 399.533C429.22 399.653 428.611 400.818 427.158 402.309C425.289 404.215 422.755 406.027 421.021 407.934C418.099 411.15 419.482 417.036 415.875 419.58C415.079 419.995 414.305 420.451 413.557 420.946C412.87 421.656 412.489 422.606 412.493 423.594C412.498 424.581 412.889 425.527 413.582 426.23C414.32 426.895 415.234 427.333 416.214 427.491C417.194 427.649 418.2 427.521 419.109 427.122C420.893 426.261 422.309 424.788 423.098 422.972C423.493 421.606 424.256 420.376 425.305 419.416C427.357 418.012 430.006 419.664 432.45 419.674C442.939 419.796 441.45 399.006 431.495 399.533Z" fill="#AA3D0B"/>
<path d="M528.67 299.554C528.774 299.773 527.995 300.357 526.941 300.836C525.887 301.314 524.953 301.554 524.849 301.338C524.744 301.123 525.524 300.535 526.578 300.057C527.631 299.579 528.601 299.34 528.67 299.554Z" fill="#F26322"/>
<path d="M544.026 292.513C544.13 292.732 542.497 293.704 540.322 294.667C539.087 295.384 537.72 295.846 536.303 296.023C536.2 295.788 537.831 294.832 540.007 293.87C541.239 293.147 542.606 292.684 544.023 292.508L544.026 292.513Z" fill="#F26322"/>
<path d="M559.4 285.577C559.504 285.796 557.857 286.749 555.701 287.698C554.462 288.408 553.092 288.859 551.674 289.024C551.57 288.805 553.217 287.852 555.374 286.903C556.609 286.184 557.981 285.733 559.401 285.577L559.4 285.577Z" fill="#F26322"/>
<path d="M574.815 278.713C574.917 278.949 573.272 279.885 571.119 280.817C569.885 281.533 568.513 281.98 567.093 282.126C566.989 281.908 568.634 280.971 570.791 280.023C572.033 279.325 573.401 278.88 574.816 278.713L574.815 278.713Z" fill="#F26322"/>
<path d="M590.346 271.986C590.435 272.203 588.789 273.139 586.654 274.057C585.407 274.753 584.034 275.192 582.614 275.35C582.509 275.131 584.172 274.197 586.309 273.262C587.549 272.556 588.925 272.121 590.346 271.986Z" fill="#E8505B"/>
<path d="M605.784 265.313C605.87 265.546 604.21 266.463 602.092 267.383C600.838 268.066 599.461 268.493 598.04 268.638C597.935 268.419 599.598 267.485 601.732 266.568C602.987 265.887 604.364 265.46 605.784 265.313Z" fill="#E8505B"/>
<path d="M171.008 175.892C172.338 176.621 173.524 177.587 174.507 178.741C175.68 179.696 176.653 180.873 177.371 182.204C176.04 181.489 174.86 180.525 173.893 179.364C172.717 178.403 171.737 177.225 171.008 175.892Z" fill="#F26322"/>
<path d="M148.44 153.067C149.77 153.796 150.956 154.762 151.939 155.917C153.112 156.871 154.085 158.048 154.804 159.379C153.473 158.664 152.292 157.7 151.325 156.539C150.149 155.579 149.169 154.4 148.44 153.067Z" fill="#F26322"/>
<path d="M158.247 163.232C159.582 163.944 160.768 164.906 161.739 166.067C162.912 167.022 163.885 168.198 164.604 169.53C162.116 167.846 159.974 165.703 158.292 163.214L158.247 163.232Z" fill="#F26322"/>
<path d="M135.678 140.408C137.014 141.119 138.199 142.082 139.17 143.242C140.343 144.197 141.317 145.374 142.035 146.705C139.548 145.022 137.406 142.878 135.724 140.389L135.678 140.408Z" fill="#F26322"/>
<path d="M172.956 313.992C172.972 313.758 173.895 313.568 175.056 313.596C176.218 313.625 177.153 313.739 177.146 314.059C177.139 314.378 176.208 314.484 175.045 314.472C173.883 314.46 172.939 314.244 172.956 313.992Z" fill="#F26322"/>
<path d="M154.759 313.509C156.252 313.135 157.8 313.035 159.329 313.214C160.86 313.129 162.395 313.325 163.856 313.792C162.371 314.179 160.825 314.28 159.303 314.088C157.765 314.196 156.221 314.001 154.759 313.513L154.759 313.509Z" fill="#F26322"/>
<path d="M136.599 312.725C138.093 312.361 139.642 312.283 141.164 312.497C142.699 312.434 144.233 312.659 145.686 313.159C144.19 313.509 142.643 313.581 141.122 313.37C139.587 313.447 138.051 313.228 136.599 312.725Z" fill="#F26322"/>
<path d="M118.441 311.655C119.939 311.329 121.485 311.28 123.001 311.511C124.538 311.478 126.069 311.726 127.517 312.241C124.481 312.618 121.401 312.408 118.444 311.622L118.441 311.655Z" fill="#F26322"/>
<path d="M100.309 310.234C103.35 309.885 106.43 310.135 109.375 310.97C106.334 311.297 103.258 311.047 100.309 310.234Z" fill="#F26322"/>
<path d="M82.1969 308.507C83.7068 308.232 85.2548 308.24 86.7616 308.532C88.3013 308.528 89.8267 308.827 91.2513 309.411C89.745 309.716 88.1953 309.742 86.6797 309.486C85.1364 309.451 83.6143 309.119 82.1969 308.507Z" fill="#F26322"/>
<path d="M68.9845 307.07C69.0005 306.835 69.9672 306.75 71.119 306.879C72.2708 307.008 73.1796 307.306 73.1635 307.541C73.1475 307.776 72.1797 307.879 71.0279 307.749C69.8761 307.619 68.9506 307.321 68.9845 307.07Z" fill="#E8505B"/>
<path d="M181.837 381.818C181.813 381.584 182.593 381.116 183.707 380.781C184.822 380.447 185.851 380.427 185.878 380.693C185.906 380.96 185.077 381.283 183.964 381.634C182.851 381.985 181.915 382.064 181.837 381.818Z" fill="#F26322"/>
<path d="M165.619 387.287C166.788 386.434 168.115 385.821 169.524 385.484C170.845 384.89 172.269 384.56 173.716 384.513C172.547 385.367 171.22 385.98 169.812 386.316C168.491 386.91 167.067 387.24 165.619 387.287Z" fill="#F26322"/>
<path d="M149.463 392.853C150.625 391.998 151.947 391.386 153.35 391.052C154.668 390.448 156.093 390.112 157.541 390.064C155.063 391.527 152.315 392.475 149.463 392.853Z" fill="#F26322"/>
<path d="M133.269 398.398C134.437 397.543 135.763 396.928 137.17 396.59C138.491 395.996 139.915 395.666 141.363 395.619C140.194 396.473 138.867 397.086 137.458 397.422C136.141 398.026 134.714 398.356 133.266 398.394L133.269 398.398Z" fill="#F26322"/>
<path d="M117.088 403.911C119.591 402.439 122.372 401.504 125.255 401.163C124.075 402.006 122.743 402.613 121.332 402.951C119.997 403.555 118.553 403.882 117.088 403.911Z" fill="#F26322"/>
<path d="M100.877 409.444C103.387 407.988 106.166 407.059 109.046 406.713C107.88 407.569 106.551 408.177 105.14 408.499C103.799 409.104 102.348 409.426 100.877 409.444Z" fill="#F26322"/>
<path d="M84.6471 414.791C85.8175 413.944 87.1466 413.342 88.555 413.021C89.8791 412.438 91.3047 412.119 92.7513 412.083C91.5906 412.947 90.2579 413.55 88.8434 413.853C87.5193 414.437 86.0937 414.756 84.6471 414.791Z" fill="#F26322"/>
<path d="M68.3818 420.13C69.5643 419.298 70.8991 418.708 72.3098 418.392C73.6339 417.808 75.0611 417.495 76.5078 417.47C75.3312 418.315 73.9955 418.912 72.5816 419.225C71.2545 419.799 69.8275 420.107 68.3818 420.13Z" fill="#F26322"/>
<path d="M52.11 425.401C53.2971 424.568 54.639 423.982 56.0563 423.677C57.3834 423.104 58.8104 422.796 60.2561 422.773C59.073 423.615 57.7308 424.207 56.3114 424.513C54.9843 425.087 53.5557 425.388 52.11 425.401Z" fill="#F26322"/>
<path d="M190.652 194.059C189.36 193.467 188.204 192.614 187.258 191.553C185.544 190 184.287 188.581 184.448 188.4C185.736 189 186.89 189.852 187.843 190.906C189.56 192.425 190.819 193.828 190.652 194.059Z" fill="#F26322"/>
<path d="M203.082 205.328C201.79 204.737 200.634 203.883 199.687 202.823C197.974 201.27 196.716 199.851 196.878 199.67C198.167 200.285 199.32 201.155 200.265 202.226C201.984 203.744 203.244 205.148 203.082 205.328Z" fill="#F26322"/>
<path d="M214.181 215.457C214.02 215.638 212.8 214.783 211.448 213.551C210.095 212.319 209.139 211.166 209.301 210.986C209.463 210.806 210.682 211.659 212.033 212.905C213.383 214.151 214.343 215.276 214.181 215.457Z" fill="#F26322"/>
<path d="M498.333 440.45C495.605 439.687 493.064 438.37 490.868 436.581C493.598 437.337 496.141 438.655 498.333 440.45Z" fill="#E8505B"/>
<path d="M513.308 448.178C511.908 447.944 510.572 447.424 509.384 446.648C508.061 446.116 506.858 445.326 505.844 444.324C507.249 444.559 508.591 445.081 509.785 445.856C511.102 446.39 512.299 447.179 513.308 448.178Z" fill="#F26322"/>
<path d="M528.231 455.915C525.503 455.152 522.962 453.834 520.767 452.045C522.168 452.3 523.506 452.826 524.705 453.594C526.022 454.127 527.219 454.916 528.228 455.915L528.231 455.915Z" fill="#F26322"/>
<path d="M543.154 463.654C541.753 463.418 540.416 462.891 539.231 462.107C537.903 461.587 536.698 460.795 535.692 459.784C538.421 460.541 540.963 461.859 543.154 463.654Z" fill="#F26322"/>
<path d="M558.077 471.391C555.349 470.628 552.808 469.31 550.612 467.521C553.343 468.278 555.885 469.596 558.077 471.391Z" fill="#F26322"/>
<path d="M573 479.128C570.273 478.365 567.732 477.048 565.536 475.259C568.266 476.015 570.808 477.333 573 479.128Z" fill="#F26322"/>
<path d="M518.375 404.651C515.583 404.177 512.917 403.137 510.542 401.595C513.334 402.069 516 403.109 518.375 404.651Z" fill="#F26322"/>
<path d="M534.023 410.777C532.606 410.676 531.223 410.293 529.955 409.652C528.586 409.266 527.311 408.604 526.208 407.707C527.625 407.808 529.008 408.191 530.275 408.832C531.644 409.218 532.919 409.88 534.022 410.777L534.023 410.777Z" fill="#F26322"/>
<path d="M408.345 126.947C408.435 125.529 408.806 124.143 409.436 122.87C409.81 121.498 410.462 120.217 411.349 119.107C411.26 120.525 410.89 121.91 410.259 123.183C409.884 124.555 409.233 125.836 408.345 126.946L408.345 126.947Z" fill="#F26322"/>
<path d="M549.686 416.905C546.894 416.431 544.229 415.391 541.854 413.849C544.647 414.318 547.314 415.358 549.686 416.905Z" fill="#F26322"/>
<path d="M402.35 142.662C402.8 139.866 403.818 137.191 405.34 134.803C404.895 137.601 403.877 140.276 402.35 142.662Z" fill="#F26322"/>
<path d="M565.351 423.017C563.929 422.916 562.54 422.532 561.267 421.89C559.898 421.504 558.623 420.842 557.52 419.944C560.316 420.413 562.983 421.46 565.351 423.017Z" fill="#F26322"/>
<path d="M396.371 158.378C396.46 156.954 396.832 155.563 397.464 154.284C397.838 152.912 398.49 151.632 399.377 150.521C398.932 153.321 397.908 155.997 396.371 158.378Z" fill="#F26322"/>
<path d="M464.223 474.494C464.018 474.618 462.856 473.127 461.627 471.151C460.767 470.016 460.144 468.72 459.795 467.339C460 467.215 461.162 468.706 462.373 470.68C463.243 471.812 463.872 473.11 464.223 474.494Z" fill="#F26322"/>
<path d="M473.252 488.654C473.044 488.794 471.863 487.318 470.616 485.356C469.369 483.394 468.512 481.659 468.71 481.585C468.908 481.511 470.095 482.941 471.346 484.883C472.596 486.825 473.456 488.53 473.252 488.654Z" fill="#F26322"/>
<path d="M482.538 502.684C482.333 502.808 481.13 501.362 479.844 499.428C478.558 497.494 477.66 495.819 477.857 495.748C478.055 495.676 479.265 497.07 480.551 499.003C481.837 500.937 482.744 502.544 482.538 502.684Z" fill="#F26322"/>
<path d="M492.054 516.525C491.863 516.668 490.625 515.234 489.303 513.33C488.392 512.245 487.7 510.992 487.267 509.643C487.474 509.502 488.696 510.934 490.017 512.838C491.339 514.742 492.26 516.384 492.054 516.525Z" fill="#F26322"/>
<path d="M28.2911 288.4V321.435L24.9847 323.421L21.6782 321.425V288.422L13.1048 293.606V321.859L24.9839 329L36.9645 321.809V293.587L28.2911 288.4ZM24.9839 271L0 285.87V314.127L6.48871 317.882V289.623L24.9895 278.572L43.5065 289.607L43.5831 289.65L43.575 317.841L50 314.127V285.87L24.9839 271Z" fill="#EC6737"/>
<path fill-rule="evenodd" clip-rule="evenodd" d="M686.948 547C693.371 538.956 696.94 531.786 698.517 523.753C696.615 523.499 694.867 522.571 693.59 521.137C692.313 519.703 691.59 517.858 691.553 515.937C691.517 514.015 692.168 512.144 693.39 510.663C694.612 509.181 696.323 508.187 698.214 507.86C696.577 499.972 693.006 492.921 686.634 485C692.744 491.338 697.058 499.192 699.134 507.754C699.296 507.746 699.441 507.743 699.575 507.743C701.703 507.743 703.745 508.59 705.25 510.098C706.755 511.605 707.6 513.65 707.6 515.783C707.6 517.915 706.755 519.96 705.25 521.467C703.745 522.975 701.703 523.822 699.575 523.822H699.461C697.456 532.539 693.132 540.548 686.948 547ZM696.866 511.173V520.356H702.285V519.045H698.202V515.936H702.025V514.677H698.202V512.458H702.208V511.173H696.866Z" fill="black"/>
<path d="M682.725 517.812L686.766 509.321L689.048 521.652H687.216L686.023 514.825L682.725 521.879L679.427 514.825L678.235 521.652H676.403L678.682 509.321L682.725 517.812Z" fill="black"/>
<path fill-rule="evenodd" clip-rule="evenodd" d="M719.501 521.653V521.152C719.545 520.389 719.379 519.629 719.021 518.955C718.663 518.28 718.127 517.717 717.471 517.327C718.089 516.98 718.603 516.472 718.958 515.858C719.314 515.244 719.499 514.545 719.493 513.835C719.492 513.25 719.371 512.671 719.139 512.134C718.907 511.597 718.567 511.113 718.142 510.711C717.717 510.31 717.215 509.999 716.666 509.799C716.117 509.598 715.533 509.511 714.95 509.544H711.033V521.653H712.81V518.106H714.953C716.715 518.106 717.699 519.818 717.699 521.152V521.653H719.501ZM712.818 511.102H715.168C715.851 511.158 716.488 511.469 716.952 511.974C717.417 512.478 717.675 513.14 717.675 513.826C717.675 514.512 717.417 515.173 716.952 515.678C716.488 516.183 715.851 516.494 715.168 516.55H712.818V511.102Z" fill="black"/>
<path d="M723.809 509.544H725.571V521.652H723.809V509.544Z" fill="black"/>
<path fill-rule="evenodd" clip-rule="evenodd" d="M734.625 509.544H730.395V521.648H734.625C736.193 521.597 737.681 520.937 738.772 519.808C739.864 518.679 740.474 517.168 740.474 515.596C740.474 514.024 739.864 512.514 738.772 511.384C737.681 510.255 736.193 509.595 734.625 509.544ZM737.419 518.684C736.634 519.519 735.561 520.023 734.417 520.092H732.154V511.101H734.417C735.561 511.17 736.634 511.674 737.419 512.509C738.204 513.345 738.641 514.449 738.641 515.597C738.641 516.744 738.204 517.848 737.419 518.684Z" fill="black"/>
<path d="M743.757 509.544H745.52V521.652H743.757V509.544Z" fill="black"/>
<path fill-rule="evenodd" clip-rule="evenodd" d="M750.701 521.652L751.944 518.625H755.955L757.198 521.652H759.064L753.951 509.321L748.836 521.652H750.701ZM752.529 517.061L753.948 513.451L755.361 517.061H752.529Z" fill="black"/>
<path d="M761.533 509.544H763.157L769.34 517.17V509.544H771V521.858L763.193 512.519V521.652H761.533V509.544Z" fill="black"/>
<path d="M656.413 519.38H658.371L658.378 519.381C658.767 519.371 659.137 519.213 659.413 518.938C659.688 518.663 659.848 518.293 659.86 517.904C659.86 517.508 659.703 517.129 659.424 516.849C659.145 516.57 658.766 516.413 658.371 516.413H656.413V519.38Z" fill="black"/>
<path d="M656.414 515.265H658.313C658.651 515.265 658.976 515.13 659.215 514.89C659.454 514.65 659.589 514.325 659.589 513.986C659.589 513.647 659.454 513.322 659.215 513.082C658.976 512.842 658.651 512.708 658.313 512.708H656.414V515.265Z" fill="black"/>
<path fill-rule="evenodd" clip-rule="evenodd" d="M637.224 530.693C640.74 533.577 645.143 535.154 649.688 535.159C652.275 535.162 654.839 534.653 657.229 533.661C659.62 532.668 661.791 531.213 663.618 529.377C666.853 526.14 668.863 521.878 669.304 517.32C669.745 512.761 668.591 508.191 666.038 504.392C663.485 500.593 659.692 497.802 655.311 496.497C650.929 495.192 646.231 495.454 642.021 497.238C637.836 499.014 634.393 502.183 632.274 506.21C630.155 510.237 629.49 514.874 630.392 519.336C631.294 523.798 633.708 527.81 637.224 530.693ZM640.27 520.708L636.571 511.57H637.945L640.271 517.281L640.796 516.008L639.011 511.566H640.383L642.709 517.277L645.025 511.559H646.394L642.706 520.705L641.487 517.701L640.27 520.708ZM648.107 511.559L653.336 511.555L653.341 512.818H649.419V514.987L653.162 514.984V516.22H649.419L649.417 519.261H653.413V520.547H648.107V511.559ZM655.095 511.548H658.524C659.166 511.549 659.782 511.804 660.236 512.259C660.69 512.713 660.947 513.33 660.949 513.973C660.937 514.324 660.848 514.668 660.687 514.98C660.527 515.293 660.299 515.566 660.021 515.779C660.392 515.993 660.698 516.302 660.908 516.675C661.118 517.048 661.224 517.47 661.216 517.898C661.215 518.596 660.939 519.265 660.446 519.759C659.954 520.253 659.286 520.531 658.59 520.532L655.103 520.536L655.095 511.548Z" fill="black"/>
</svg>
