<svg width="132" height="56" viewBox="0 0 132 56" fill="none" xmlns="http://www.w3.org/2000/svg">
<path fill-rule="evenodd" clip-rule="evenodd" d="M53.0098 56C58.9893 48.7342 62.3109 42.2587 63.7788 35.0028C62.0088 34.7733 60.3818 33.9351 59.1927 32.64C58.0037 31.3449 57.3312 29.6786 57.297 27.9431C57.2629 26.2075 57.8694 24.5174 59.0067 23.1791C60.144 21.8408 61.7369 20.9428 63.4966 20.6477C61.9733 13.5229 58.6488 7.15453 52.7181 0C58.4052 5.72471 62.4213 12.8185 64.3534 20.552C64.5044 20.5449 64.6393 20.5421 64.764 20.5421C66.7452 20.5421 68.6452 21.3071 70.0461 22.6689C71.447 24.0307 72.2341 25.8778 72.2341 27.8036C72.2341 29.7295 71.447 31.5765 70.0461 32.9384C68.6452 34.3002 66.7452 35.0652 64.764 35.0652H64.6583C62.7917 42.9381 58.7663 50.1725 53.0098 56ZM62.2424 23.6405V31.9342H67.2863V30.7504H63.4857V27.9426H67.045V26.8049H63.4857V24.8009H67.2149V23.6405H62.2424Z" fill="white"/>
<path d="M49.0793 29.6362L52.8406 21.9678L54.9648 33.1054H53.2592L52.1493 26.9383L49.0793 33.3102L46.0093 26.9383L44.8995 33.1054H43.1938L45.3158 21.9678L49.0793 29.6362Z" fill="white"/>
<path fill-rule="evenodd" clip-rule="evenodd" d="M83.3123 33.1062V32.6532C83.353 31.9644 83.1984 31.278 82.8652 30.6689C82.532 30.0597 82.0331 29.5512 81.4229 29.1989C81.9981 28.8847 82.4761 28.4263 82.8071 27.8715C83.1381 27.3168 83.3101 26.6858 83.305 26.0445C83.3035 25.5158 83.1912 24.993 82.975 24.5079C82.7587 24.0227 82.4431 23.5855 82.0474 23.2229C81.6516 22.8603 81.184 22.5798 80.673 22.3987C80.1621 22.2175 79.6186 22.1394 79.0756 22.1691H75.4295V33.1062H77.0841V29.9021H79.0785C80.7192 29.9021 81.6351 31.4481 81.6351 32.6532V33.1062H83.3123ZM77.0914 23.5762H79.279C79.9146 23.6266 80.5075 23.9076 80.9397 24.3634C81.372 24.8192 81.6119 25.4164 81.6119 26.0363C81.6119 26.6563 81.372 27.2535 80.9397 27.7093C80.5075 28.1651 79.9146 28.4461 79.279 28.4964H77.0914V23.5762Z" fill="white"/>
<path d="M87.3219 22.1692H88.9627V33.1048H87.3219V22.1692Z" fill="white"/>
<path fill-rule="evenodd" clip-rule="evenodd" d="M97.3904 22.1692H93.4526V33.1013H97.3904C98.8503 33.0555 100.235 32.4596 101.251 31.4395C102.267 30.4194 102.835 29.0552 102.835 27.6352C102.835 26.2153 102.267 24.851 101.251 23.8309C100.235 22.8108 98.8503 22.2149 97.3904 22.1692ZM99.9915 30.4239C99.2607 31.1785 98.2613 31.6336 97.1971 31.6963H95.0904V23.5749H97.1971C98.2613 23.6375 99.2607 24.0926 99.9915 24.8473C100.722 25.6019 101.129 26.5992 101.129 27.6356C101.129 28.6719 100.722 29.6692 99.9915 30.4239Z" fill="white"/>
<path d="M105.891 22.1692H107.532V33.1048H105.891V22.1692Z" fill="white"/>
<path fill-rule="evenodd" clip-rule="evenodd" d="M112.355 33.1054L113.512 30.3706H117.245L118.403 33.1054H120.139L115.38 21.9678L110.618 33.1054H112.355ZM114.057 28.9585L115.377 25.6978L116.693 28.9585H114.057Z" fill="white"/>
<path d="M122.437 22.1692H123.949L129.705 29.0572V22.1692H131.25V33.2912L123.983 24.8558V33.1048H122.437V22.1692Z" fill="white"/>
<path d="M24.5865 31.053H26.4095L26.4161 31.0537C26.7778 31.0449 27.1224 30.9018 27.3789 30.6536C27.6354 30.4055 27.7843 30.0712 27.795 29.7196C27.795 29.3624 27.649 29.0198 27.3892 28.7672C27.1294 28.5146 26.7769 28.3728 26.4095 28.3728H24.5865V31.053Z" fill="white"/>
<path d="M24.5872 27.3357H26.3548C26.6698 27.3357 26.972 27.214 27.1948 26.9975C27.4175 26.7809 27.5427 26.4872 27.5427 26.181C27.5427 25.8747 27.4175 25.581 27.1948 25.3644C26.972 25.1479 26.6698 25.0262 26.3548 25.0262H24.5872V27.3357Z" fill="white"/>
<path fill-rule="evenodd" clip-rule="evenodd" d="M6.72465 41.2715C9.9978 43.876 14.0963 45.3007 18.3262 45.3046C20.7349 45.3076 23.1212 44.8478 25.3465 43.9516C27.5718 43.0553 29.5929 41.7404 31.2938 40.0824C34.3043 37.1591 36.1753 33.309 36.5862 29.1919C36.997 25.0748 35.9221 20.9469 33.5457 17.5156C31.1693 14.0844 27.6393 11.5633 23.5605 10.3844C19.4818 9.20547 15.1083 9.44216 11.1893 11.0539C7.29444 12.6575 4.08935 15.5203 2.11679 19.1577C0.144221 22.795 -0.474593 26.9832 0.365127 31.0131C1.20485 35.0431 3.4515 38.6671 6.72465 41.2715ZM9.56027 32.2523L6.11693 23.9991H7.39597L9.561 29.1567L10.0496 28.007L8.3877 23.9955H9.66528L11.8303 29.1532L13.9859 23.9892H15.2605L11.8274 32.2495L10.6927 29.5367L9.56027 32.2523ZM16.8546 23.9892L21.7221 23.9856L21.7272 25.1262H18.076V27.0855L21.5602 27.0819V28.1991H18.076L18.0746 30.9452H21.7936V32.107H16.8546V23.9892ZM23.3599 23.9785H26.5517C27.1493 23.9795 27.7223 24.2104 28.1452 24.6209C28.5682 25.0314 28.8067 25.5879 28.8086 26.1689C28.7977 26.486 28.7146 26.7968 28.5653 27.079C28.416 27.3612 28.2043 27.6076 27.9452 27.8007C28.29 27.9936 28.5751 28.273 28.7707 28.6097C28.9664 28.9464 29.0653 29.328 29.0573 29.7146C29.0569 30.345 28.7993 30.9494 28.3411 31.3954C27.8829 31.8413 27.2614 32.0924 26.6129 32.0936L23.3672 32.0971L23.3599 23.9785Z" fill="white"/>
</svg>
